<?xml version="1.0"?>
<svg xmlns="http://www.w3.org/2000/svg" height="512px" viewBox="0 0 56 56" width="512px" class=""><g><g id="Page-1" fill="none" fill-rule="evenodd"><g id="044---Doctors-Appointment" fill="rgb(0,0,0)" fill-rule="nonzero"><path id="Shape" d="m23 5c.5522847 0 1-.44771525 1-1v-3c0-.55228475-.4477153-1-1-1s-1 .44771525-1 1v3c0 .55228475.4477153 1 1 1z" data-original="#000000" class="active-path" data-old_color="#000000" fill="#146199"/><path id="Shape" d="m13 5c.5522847 0 1-.44771525 1-1v-3c0-.55228475-.4477153-1-1-1s-1 .44771525-1 1v3c0 .55228475.4477153 1 1 1z" data-original="#000000" class="active-path" data-old_color="#000000" fill="#146199"/><path id="Shape" d="m51 4c0-.55228475-.4477153-1-1-1h-4v1c0 1.65685425-1.3431458 3-3 3s-3-1.34314575-3-3v-1h-4v1c0 1.65685425-1.3431458 3-3 3s-3-1.34314575-3-3v-1h-4v1c0 1.65685421-1.3431458 2.99999991-3 2.99999991s-3-1.3431457-3-2.99999991v-1h-4v1c0 1.65685425-1.3431458 3-3 3s-3-1.34314575-3-3v-1h-4c-.55228475 0-1 .44771525-1 1v5h46z" data-original="#000000" class="active-path" data-old_color="#000000" fill="#146199"/><path id="Shape" d="m33 5c.5522847 0 1-.44771525 1-1v-3c0-.55228475-.4477153-1-1-1s-1 .44771525-1 1v3c0 .55228475.4477153 1 1 1z" data-original="#000000" class="active-path" data-old_color="#000000" fill="#146199"/><path id="Shape" d="m43 5c.5522847 0 1-.44771525 1-1v-3c0-.55228475-.4477153-1-1-1s-1 .44771525-1 1v3c0 .55228475.4477153 1 1 1z" data-original="#000000" class="active-path" data-old_color="#000000" fill="#146199"/><circle id="Oval" cx="17" cy="19" r="2" data-original="#000000" class="active-path" data-old_color="#000000" fill="#146199"/><path id="Shape" d="m55 6h-2v44c0 1.6568542-1.3431458 3-3 3h-44c-1.65685425 0-3-1.3431458-3-3v-44h-2c-.55228475 0-1 .44771525-1 1v48c0 .5522847.44771525 1 1 1h54c.5522847 0 1-.4477153 1-1v-48c0-.55228475-.4477153-1-1-1z" data-original="#000000" class="active-path" data-old_color="#000000" fill="#146199"/><path id="Shape" d="m6 51h44c.5522847 0 1-.4477153 1-1v-2.184c-.320257.1184378-.6585603.1806856-1 .184h-44c-.34143967-.0033144-.67974302-.0655622-1-.184v2.184c0 .5522847.44771525 1 1 1z" data-original="#000000" class="active-path" data-old_color="#000000" fill="#146199"/><path id="Shape" d="m6 46h44c.5522847 0 1-.4477153 1-1v-34h-46v34c0 .5522847.44771525 1 1 1zm16.293-16.707c.3904999-.3903819 1.0235001-.3903819 1.414 0l2.157 2.157 6.317-9.023c.3230894-.4333537.9320649-.5315253 1.3749678-.2216555.4429028.3098697.5594002.9156066.2630322 1.3676555l-7 10c-.1694679.242281-.4374646.3971479-.732.423-.0289118.0028297-.0579505.0041648-.087.004-.2651948-.0000566-.5195073-.1054506-.707-.293l-3-3c-.3903819-.3904999-.3903819-1.0235001 0-1.414zm-9.293-10.293c-.0203757-1.7312401 1.0625326-3.2837743 2.6942475-3.8626645 1.631715-.5788902 3.4509445-.0559593 4.5261956 1.3010383s1.1684431 3.2475975.2318594 4.7037632c-.9365838 1.4561656-2.6955663 2.1554748-4.3763025 1.739863-.7053575 1.6143166-1.0715928 3.3563168-1.076 5.118 0 7.1797017 5.8202983 13 13 13s13-5.8202983 13-13v-2.1c-2.3264168-.4784327-3.9970017-2.5248992-4-4.9v-5c0-1.1045695.8954305-2 2-2h1c.5522847 0 1 .4477153 1 1s-.4477153 1-1 1h-1v5c0 1.6568542 1.3431458 3 3 3s3-1.3431458 3-3v-5h-1c-.5522847 0-1-.4477153-1-1s.4477153-1 1-1h1c1.1045695 0 2 .8954305 2 2v5c-.0029983 2.3751008-1.6735832 4.4215673-4 4.9v2.1c0 8.2842712-6.7157288 15-15 15s-15-6.7157288-15-15c.0052597-2.0895829.4513059-4.1545485 1.309-6.06-.8309663-.7518753-1.3062552-1.819369-1.309-2.94z" data-original="#000000" class="active-path" data-old_color="#000000" fill="#146199"/></g></g><script xmlns="" class="active-path" style=""/></g> </svg>
