<?xml version="1.0"?>
<svg xmlns="http://www.w3.org/2000/svg" xmlns:xlink="http://www.w3.org/1999/xlink" version="1.1" id="Layer_1" x="0px" y="0px" viewBox="0 0 512 512" style="enable-background:new 0 0 512 512;" xml:space="preserve" width="512px" height="512px" class=""><g><g>
	<path d="M361,405c0,8.276,6.724,15,15,15s15-6.724,15-15s-6.724-15-15-15S361,396.724,361,405z" data-original="#000000" class="active-path" data-old_color="#ad4274" fill="#ad4274"/>
	<path d="M436.894,285.381L391,264.631v98.132c17.422,6.213,30,22.707,30,42.237c0,24.814-20.186,45-45,45s-45-20.186-45-45   c0-19.53,12.578-36.024,30-42.237V261.896c-30.815,44.007-69.806,58.805-105,70.536c-28.85-9.617-48.912-16.58-75-37.932v37.018   c34.191,6.969,60,37.266,60,73.482v45h-60v-30h30v-15c0-24.814-20.186-45-45-45s-45,20.186-45,45v15h30v30H91v-45   c0-36.216,25.809-66.513,60-73.482v-69.617c-1.934-2.761-4.281-5.231-6.041-8.113l-69.868,31.593   C48.314,297.495,31,324.316,31,353.716V512h450V353.716C481,324.316,463.686,297.495,436.894,285.381z" data-original="#000000" class="active-path" data-old_color="#ad4274" fill="#ad4274"/>
	<path d="M271,75h30c0,24.814,20.186,45,45,45h15v-15C361,47.109,313.891,0,256,0S151,47.109,151,105v15h75   C250.814,120,271,99.814,271,75z" data-original="#000000" class="active-path" data-old_color="#ad4274" fill="#ad4274"/>
	<path d="M154.499,210h2.448c14.712,47.948,52.116,75.03,99.053,90.82c46.817-15.75,84.302-42.794,99.038-90.82h2.463   C376.002,210,391,195.002,391,176.499C391,161.863,379.135,150,364.499,150H346c-24.62,0-46.318-12.085-60-30.463   C272.318,137.915,250.62,150,226,150h-78.499C132.865,150,121,161.863,121,176.499C121,195.002,135.998,210,154.499,210z" data-original="#000000" class="active-path" data-old_color="#ad4274" fill="#ad4274"/>
</g></g> </svg>
