<svg height="511pt" viewBox="0 0 511.99902 511" width="511pt" xmlns="http://www.w3.org/2000/svg"><path d="m89.347656 504.996094c12.679688-27.445313 40.859375-81.140625 88.480469-135.90625 55.804687-64.175782 110.914063-106.929688 184.296875-135.972656l29.875-11.453126c35.640625-12.300781 73.164062-20.574218 112.496094-24.769531v-110.28125c-1.753906 0-3.519532.078125-5.304688.253907-61.113281 5.917968-119.347656 20.203124-173.960937 42.601562 8.761719-52.335938 48.433593-103.300781 75.765625-121.46875h-142.25c-3.855469 5.390625-7.71875 11.277344-11.484375 17.695312-19.574219 33.359376-40.191407 87.996094-32.898438 163.871094-44.628906 30.742188-85.730469 67.898438-122.582031 110.867188-38.429688 44.808594-65.929688 88.660156-84.28125 122.527344zm0 0" fill="#f5879f"/><g fill="#d47589"><path d="m114.769531 389.296875c0 7.457031-6.042969 13.5-13.5 13.5-7.453125 0-13.5-6.042969-13.5-13.5s6.046875-13.5 13.5-13.5c7.457031 0 13.5 6.042969 13.5 13.5zm0 0"/><path d="m303.191406 73.234375c0 7.457031-6.042968 13.5-13.5 13.5-7.453125 0-13.5-6.042969-13.5-13.5 0-7.453125 6.046875-13.5 13.5-13.5 7.457032 0 13.5 6.046875 13.5 13.5zm0 0"/><path d="m363.269531 201.398438c0 7.453124-6.042969 13.5-13.5 13.5s-13.5-6.046876-13.5-13.5c0-7.457032 6.042969-13.5 13.5-13.5s13.5 6.042968 13.5 13.5zm0 0"/><path d="m275.769531 175.675781c0 7.453125-6.042969 13.5-13.5 13.5s-13.5-6.046875-13.5-13.5c0-7.457031 6.042969-13.5 13.5-13.5s13.5 6.042969 13.5 13.5zm0 0"/><path d="m238.269531 280.113281c0 7.453125-6.042969 13.5-13.5 13.5-7.453125 0-13.5-6.046875-13.5-13.5 0-7.457031 6.046875-13.5 13.5-13.5 7.457031 0 13.5 6.042969 13.5 13.5zm0 0"/><path d="m468.019531 139.78125c0 7.457031-6.046875 13.5-13.5 13.5-7.457031 0-13.5-6.042969-13.5-13.5s6.042969-13.5 13.5-13.5c7.453125 0 13.5 6.042969 13.5 13.5zm0 0"/><path d="m70.980469 416.296875c0 7.453125-6.046875 13.5-13.5 13.5-7.457031 0-13.5-6.046875-13.5-13.5 0-7.457031 6.042969-13.5 13.5-13.5 7.453125 0 13.5 6.042969 13.5 13.5zm0 0"/><path d="m97.980469 458.296875c0 7.453125-6.046875 13.5-13.5 13.5-7.457031 0-13.5-6.046875-13.5-13.5 0-7.457031 6.042969-13.5 13.5-13.5 7.453125 0 13.5 6.042969 13.5 13.5zm0 0"/><path d="m499.191406 86.867188c-5.402344.523437-10.777344 1.136718-16.136718 1.789062v56.023438c0 17.195312-12.40625 31.960937-29.378907 34.722656-28.738281 4.671875-56.457031 11.621094-83.121093 20.824218l-29.871094 11.449219c-73.382813 29.042969-128.492188 71.800781-184.296875 135.976563-47.601563 54.742187-75.777344 108.414062-88.464844 135.871094l21.425781 21.476562c12.679688-27.445312 40.859375-81.140625 88.480469-135.90625 55.804687-64.175781 110.914063-106.933594 184.296875-135.976562l29.875-11.449219c35.640625-12.300781 73.164062-20.578125 112.496094-24.769531v-110.285157c-1.753906.003907-3.523438.082031-5.304688.253907zm0 0"/></g><path d="m91.78125 300.433594c-15.199219 17.71875-28.679688 35.289062-40.570312 52.152344 16.511718-.691407 11.863281 7.300781 30.730468 1.925781 9.300782-2.648438 16.984375-13.882813 27.863282-19.375 9.226562-4.660157 23-3.859375 32.039062-11.242188 8.101562-6.617187 10.167969-19.960937 17.195312-29.234375 6.273438-8.28125 18.789063-13.671875 23.546876-24.40625 4.171874-9.417968.082031-22.332031 2.640624-33.871094 2.226563-10.042968 11.660157-19.820312 12.363282-31.617187l-2.269532-1.507813c-37.324218 27.882813-71.992187 60.394532-103.539062 97.175782zm0 0" fill="#fcda55"/><path d="m197.589844 204.765625-2.269532-1.511719c-8.726562 6.519532-17.296874 13.300782-25.726562 20.320313-1.597656 10.902343 1.679688 22.707031-2.210938 31.480469-4.757812 10.734374-17.273437 16.125-23.546874 24.402343-7.027344 9.273438-9.089844 22.621094-17.191407 29.234375-9.042969 7.382813-22.8125 6.582032-32.042969 11.242188-10.875 5.492187-18.558593 16.726562-27.859374 19.378906-2.863282.8125-5.175782 1.316406-7.113282 1.59375-2.886718 3.921875-5.699218 7.820312-8.417968 11.675781 16.511718-.691406 11.859374 7.304688 30.730468 1.929688 9.300782-2.648438 16.984375-13.886719 27.859375-19.378907 9.230469-4.660156 23.003907-3.855468 32.042969-11.238281 8.101562-6.617187 10.167969-19.964843 17.191406-29.238281 6.277344-8.277344 18.792969-13.667969 23.546875-24.402344 4.175781-9.417968.085938-22.332031 2.644531-33.871094 2.226563-10.042968 11.660157-19.820312 12.363282-31.617187zm0 0" fill="#d9bc49"/><path d="m108.5 384.796875c0 7.457031-6.042969 13.5-13.5 13.5s-13.5-6.042969-13.5-13.5 6.042969-13.5 13.5-13.5 13.5 6.042969 13.5 13.5zm0 0" fill="#d81229"/><path d="m296.921875 68.734375c0 7.457031-6.042969 13.5-13.5 13.5s-13.5-6.042969-13.5-13.5c0-7.453125 6.042969-13.5 13.5-13.5s13.5 6.046875 13.5 13.5zm0 0" fill="#d81229"/><path d="m357 196.898438c0 7.453124-6.046875 13.5-13.5 13.5-7.457031 0-13.5-6.046876-13.5-13.5 0-7.457032 6.042969-13.5 13.5-13.5 7.453125 0 13.5 6.042968 13.5 13.5zm0 0" fill="#d81229"/><path d="m269.5 171.175781c0 7.453125-6.046875 13.5-13.5 13.5-7.457031 0-13.5-6.046875-13.5-13.5 0-7.457031 6.042969-13.5 13.5-13.5 7.453125 0 13.5 6.042969 13.5 13.5zm0 0" fill="#d81229"/><path d="m232 275.613281c0 7.453125-6.042969 13.5-13.5 13.5s-13.5-6.046875-13.5-13.5c0-7.457031 6.042969-13.5 13.5-13.5s13.5 6.042969 13.5 13.5zm0 0" fill="#d81229"/><path d="m461.746094 135.28125c0 7.457031-6.042969 13.5-13.5 13.5-7.453125 0-13.5-6.042969-13.5-13.5s6.046875-13.5 13.5-13.5c7.457031 0 13.5 6.042969 13.5 13.5zm0 0" fill="#d81229"/><path d="m64.707031 411.796875c0 7.453125-6.042969 13.5-13.5 13.5-7.453125 0-13.5-6.046875-13.5-13.5 0-7.457031 6.046875-13.5 13.5-13.5 7.457031 0 13.5 6.042969 13.5 13.5zm0 0" fill="#d81229"/><path d="m91.707031 453.796875c0 7.453125-6.042969 13.5-13.5 13.5-7.453125 0-13.5-6.046875-13.5-13.5 0-7.457031 6.046875-13.5 13.5-13.5 7.457031 0 13.5 6.042969 13.5 13.5zm0 0" fill="#d81229"/><path d="m115.742188 451.484375s.832031-.085937 2.335937-.242187c14.882813-24.617188 34.605469-53.234376 59.75-82.152344 16.140625-18.5625 32.226563-35.320313 48.710937-50.484375l-.550781-.339844c-9.859375.605469-20.089843-1.625-27.914062 1.839844-10.734375 4.757812-16.125 17.273437-24.40625 23.546875-9.273438 7.027344-22.617188 9.09375-29.234375 17.195312-7.382813 9.039063-6.582032 22.8125-11.242188 32.042969-5.492187 10.875-16.726562 18.558594-19.375 27.859375-5.378906 18.871094 2.617188 14.21875 1.925782 30.734375zm0 0" fill="#d9bc49"/><path d="m328.078125 136.410156c53.859375-22.09375 111.671875-36.25 171.839844-42.078125 1.476562-.144531 3.019531-.21875 4.589843-.21875 4.140626-.003906 7.496094-3.367187 7.488282-7.507812-.003906-4.140625-3.359375-7.492188-7.5-7.492188-31.8125.773438-104.78125 13.65625-168.953125 38.203125 12.558593-47.027344 47.609375-88.453125 69.605469-103.070312 3.449218-2.292969 4.386718-6.949219 2.09375-10.398438-2.292969-3.449218-6.945313-4.386718-10.394532-2.09375-32.21875 21.414063-70.507812 75.671875-79.011718 126.476563-.96875 5.789062 4.808593 10.40625 10.242187 8.179687zm0 0"/><path d="m83.996094 361.722656c11.46875-3.265625 19.292968-14.894531 29.1875-19.894531 2.949218-1.488281 6.992187-2.367187 11.277344-3.296875 21.453124-4.660156 26.433593-9.898438 34.261718-27.507812 5.203125-11.699219 6.347656-12.902344 14.8125-19.730469 17.167969-13.859375 19.046875-20.777344 18.414063-39.28125-.460938-13.355469.089843-14.976563 5.464843-25.027344 3.261719-6.097656 6.839844-13.03125 7.507813-21.109375 4.578125-3.351562 9.039063-6.925781 13.695313-10.132812 2.242187-1.542969 3.472656-4.179688 3.210937-6.890626-6-62.460937 6.382813-125.261718 43.019531-176.484374 2.410156-3.371094 1.632813-8.054688-1.734375-10.464844-3.371093-2.410156-8.054687-1.632813-10.464843 1.734375-37.398438 52.28125-51.59375 116.65625-46.144532 182.257812-86.808594 60.722657-156.898437 143.609375-205.597656 233.492188-1.972656 3.640625-.621094 8.191406 3.023438 10.167969 3.648437 1.976562 8.195312.609374 10.164062-3.023438 12.390625-22.867188 26.242188-44.917969 41.105469-66.242188 9.632812.859376 10.324219 6.699219 28.796875 1.433594zm13.476562-56.40625c26.265625-30.625 54.910156-58.261718 85.375-82.753906-5.042968 9.636719-6.4375 14.128906-5.890625 29.964844.5 14.519531.035157 16.699218-12.84375 27.089844-10.15625 8.195312-12.8125 11.1875-19.09375 25.3125-6.109375 13.738281-7.574219 15.429687-23.742187 18.941406-12.9375 2.8125-17.03125 4.355468-29.828125 15.417968-4.183594 3.617188-8.132813 7.03125-11.5625 8.007813-8.613281 2.453125-9.898438 1.703125-14.617188-.105469 10.421875-14.21875 20.757813-28.527344 32.203125-41.875zm0 0"/><path d="m359.367188 226.140625c-50.675782 20.058594-93.449219 46.769531-135.140626 84.632813-10.277343.371093-20.007812-1.59375-29.195312 2.476562-12.777344 5.664062-18.695312 18.972656-25.894531 24.425781-3.285157 2.488281-7.4375 4.335938-11.835938 6.289063-17.535156 7.796875-22.828125 12.722656-27.507812 34.265625-2.339844 10.761719-2.914063 12.566406-12.105469 23.203125-4.523438 5.234375-9.203125 10.644531-11.085938 17.261718-5.9375 20.835938 2.199219 19.316407 1.644532 32.472657-.019532.492187.398437.8125.46875 1.28125-11.875 20.089843-20.628906 37.394531-26.175782 49.402343-1.738281 3.757813-.097656 8.214844 3.660157 9.953126 3.773437 1.742187 8.222656.082031 9.957031-3.664063 12.402344-26.851563 40.246094-79.980469 87.332031-134.128906 57.734375-66.398438 111.984375-106.453125 181.394531-133.921875 3.851563-1.523438 5.738282-5.882813 4.214844-9.734375-1.523437-3.851563-5.886718-5.738281-9.730468-4.214844zm-239.363282 208.007813c-.753906-2.179688-.925781-4.503907 1.023438-11.34375.976562-3.425782 4.394531-7.378907 8.007812-11.5625 11.035156-12.761719 12.597656-16.859376 15.417969-29.828126 3.515625-16.175781 5.234375-17.644531 18.945313-23.742187 14.167968-6.300781 17.164062-9.003906 25.308593-19.09375 8.558594-10.605469 11.476563-12.609375 19.757813-12.898437-34.03125 33.457031-61.996094 67.101562-88.460938 108.46875zm0 0"/><path d="m503.703125 189.4375c-39.667969 4.230469-78.074219 12.6875-114.152344 25.136719-9.253906 3.195312-4.628906 17.460937 4.894531 14.179687 35.011719-12.082031 72.304688-20.292968 110.847657-24.398437 4.121093-.441407 7.101562-4.136719 6.664062-8.253907-.441406-4.121093-4.144531-7.105468-8.253906-6.664062zm0 0"/></svg>