<?xml version="1.0"?>
<svg xmlns="http://www.w3.org/2000/svg" height="512px" viewBox="-44 0 464 464" width="512px"><g><path d="m32 240h8v-8c0-22.40625 13.265625-41.726562 32.320312-50.671875-5.121093-5.671875-8.320312-13.105469-8.320312-21.328125 0-17.648438 14.351562-32 32-32s32 14.351562 32 32c0 8.222656-3.199219 15.65625-8.320312 21.328125 19.054687 8.945313 32.320312 28.265625 32.320312 50.671875v8h8v-128h-128zm0 0" data-original="#000000" class="active-path" data-old_color="#000000" fill="#662D91"/><path d="m248 96h16v-24h24v-16h-24v-24h-16v24h-24v16h24zm0 0" data-original="#000000" class="active-path" data-old_color="#000000" fill="#662D91"/><path d="m112 160c0 8.835938-7.164062 16-16 16s-16-7.164062-16-16 7.164062-16 16-16 16 7.164062 16 16zm0 0" data-original="#000000" class="active-path" data-old_color="#000000" fill="#662D91"/><path d="m96 192c-22.054688 0-40 17.945312-40 40v8h80v-8c0-22.054688-17.945312-40-40-40zm0 0" data-original="#000000" class="active-path" data-old_color="#000000" fill="#662D91"/><path d="m280 208h96.007812v16h-96.007812zm0 0" data-original="#000000" class="active-path" data-old_color="#000000" fill="#662D91"/><path d="m64 11.3125-52.6875 52.6875h52.6875zm0 0" data-original="#000000" class="active-path" data-old_color="#000000" fill="#662D91"/><path d="m296 272h40v16h-40v16h24v16h-24v16h40v16h-40v16h24v16h-24v16h40v16h-40v16c0 17.648438 14.351562 32 32 32s32-14.351562 32-32v-192h-64zm0 0" data-original="#000000" class="active-path" data-old_color="#000000" fill="#662D91"/><path d="m280 240c-8.824219 0-16-7.175781-16-16v-16c0-8.824219 7.175781-16 16-16h40v-192h-240v80h-80v384h292.320312c-7.632812-8.503906-12.320312-19.695312-12.320312-32zm-72-200h24v-24h48v24h24v48h-24v24h-48v-24h-24zm-16 88h112v16h-112zm0 32h112v16h-112zm-176-64h160v160h-160zm0 240h120v16h-120zm0 32h120v16h-120zm248 80h-248v-16h248zm0-32h-248v-16h248zm-112-32v-16h16v16zm32 0v-16h16v16zm32 0v-16h16v16zm48-32h-112v-16h112zm0-32h-248v-16h248zm0-32h-248v-16h248zm0 0" data-original="#000000" class="active-path" data-old_color="#000000" fill="#662D91"/></g> </svg>
