<?xml version="1.0"?>
<svg xmlns="http://www.w3.org/2000/svg" height="512px" viewBox="0 -42 448 448" width="512px"><g><path d="m448 136c-.035156-30.914062-25.085938-55.964844-56-56h-152c-30.914062.035156-55.964844 25.085938-56 56v96c.035156 30.914062 25.085938 55.964844 56 56h48c2.121094 0 4.15625.84375 5.65625 2.34375l74.34375 74.34375v-68.6875c0-4.417969 3.582031-8 8-8h16c30.914062-.035156 55.964844-25.085938 56-56zm-40 104h-184c-4.417969 0-8-3.582031-8-8s3.582031-8 8-8h184c4.417969 0 8 3.582031 8 8s-3.582031 8-8 8zm0-48h-184c-4.417969 0-8-3.582031-8-8s3.582031-8 8-8h184c4.417969 0 8 3.582031 8 8s-3.582031 8-8 8zm0-48h-184c-4.417969 0-8-3.582031-8-8s3.582031-8 8-8h184c4.417969 0 8 3.582031 8 8s-3.582031 8-8 8zm0 0" data-original="#000000" class="active-path" data-old_color="#000000" fill="#146199"/><path d="m138.34375 210.34375c1.5-1.5 3.535156-2.34375 5.65625-2.34375h24v-72c.046875-39.746094 32.253906-71.953125 72-72h24v-8c-.035156-30.914062-25.085938-55.9648438-56-56h-152c-30.914062.0351562-55.9648438 25.085938-56 56v96c.0351562 30.914062 25.085938 55.964844 56 56h16c4.417969 0 8 3.582031 8 8v52.6875zm-106.34375-162.34375h168c4.417969 0 8 3.582031 8 8s-3.582031 8-8 8h-168c-4.417969 0-8-3.582031-8-8s3.582031-8 8-8zm0 48h120c4.417969 0 8 3.582031 8 8s-3.582031 8-8 8h-120c-4.417969 0-8-3.582031-8-8s3.582031-8 8-8zm0 64c-4.417969 0-8-3.582031-8-8s3.582031-8 8-8h112c4.417969 0 8 3.582031 8 8s-3.582031 8-8 8zm0 0" data-original="#000000" class="active-path" data-old_color="#000000" fill="#146199"/></g> </svg>
