<?xml version="1.0"?>
<svg xmlns="http://www.w3.org/2000/svg" height="512px" version="1.1" viewBox="-12 0 171 171.2468" width="512px"><g><g id="surface1">
<path d="M 9.441406 135.414062 C 9.441406 135.246094 11.78125 117.863281 19.472656 112.195312 C 23.261719 109.425781 30.511719 106.574219 37.597656 104.195312 C 37.597656 105.742188 37.597656 107.476562 37.597656 109.539062 C 37.597656 109.96875 37.597656 110.40625 37.597656 110.867188 C 30.128906 112.019531 24.621094 118.4375 24.609375 125.992188 L 24.609375 140.769531 C 24.609375 145.867188 27.140625 150.617188 31.359375 153.464844 C 32.425781 154.183594 33.867188 153.90625 34.585938 152.839844 C 35.308594 151.773438 35.027344 150.332031 33.960938 149.617188 C 31.039062 147.613281 29.300781 144.296875 29.320312 140.757812 L 29.320312 126.050781 C 29.097656 120.15625 33.6875 115.195312 39.578125 114.972656 C 45.476562 114.75 50.441406 119.34375 50.664062 125.234375 C 50.675781 125.507812 50.675781 125.777344 50.664062 126.050781 L 50.664062 140.769531 C 50.6875 144.3125 48.949219 147.632812 46.019531 149.625 C 44.738281 149.703125 43.757812 150.808594 43.835938 152.082031 C 43.914062 153.367188 45.015625 154.34375 46.296875 154.265625 C 47.027344 154.269531 47.742188 154.0625 48.355469 153.664062 C 52.664062 150.796875 55.226562 145.945312 55.164062 140.769531 L 55.164062 126.050781 C 55.15625 118.496094 49.632812 112.074219 42.164062 110.929688 C 42.164062 110.464844 42.164062 110 42.164062 109.566406 C 42.089844 107.285156 42.140625 105 42.316406 102.71875 L 44.609375 102.070312 L 63.265625 136.125 C 63.355469 136.480469 63.539062 136.8125 63.789062 137.085938 L 71.53125 151.328125 C 71.589844 151.511719 71.660156 151.6875 71.761719 151.855469 C 72.203125 152.554688 72.976562 152.980469 73.804688 152.980469 C 74.886719 152.980469 75.824219 152.230469 76.0625 151.175781 L 102.972656 102.070312 C 104.773438 102.613281 106.679688 103.214844 108.613281 103.855469 C 109.996094 106.433594 110.714844 109.316406 110.707031 112.242188 L 110.707031 119.441406 C 106.152344 120.71875 103.496094 125.457031 104.773438 130.015625 C 106.054688 134.578125 110.792969 137.234375 115.355469 135.949219 C 119.910156 134.664062 122.566406 129.929688 121.285156 125.375 C 120.476562 122.5 118.226562 120.25 115.355469 119.441406 L 115.355469 112.226562 C 115.355469 110.066406 115.035156 107.921875 114.417969 105.847656 C 119.199219 107.429688 123.769531 109.585938 128.015625 112.273438 C 135.753906 117.878906 138.023438 135.257812 138.042969 135.496094 L 142.78125 171.246094 L 147.425781 170.644531 L 142.703125 134.902344 C 142.59375 134.113281 140.105469 115.371094 130.800781 108.59375 C 124.824219 104.191406 111.988281 99.875 102.722656 97.121094 C 102.578125 97.058594 102.429688 97.011719 102.269531 96.980469 C 98.644531 95.914062 95.601562 95.09375 93.792969 94.609375 L 93.792969 88.972656 C 101.21875 83.691406 105.636719 75.132812 105.644531 66.019531 L 105.644531 61.566406 C 109.402344 63.09375 113.675781 61.296875 115.210938 57.539062 C 115.578125 56.644531 115.757812 55.691406 115.753906 54.71875 L 115.753906 47.984375 C 115.742188 43.957031 112.507812 40.675781 108.480469 40.613281 L 108.480469 38.25 C 108.492188 32.867188 107.621094 27.511719 105.890625 22.417969 C 106.898438 20.945312 108.164062 19.667969 109.625 18.652344 C 110.707031 17.960938 111.019531 16.53125 110.332031 15.449219 C 110.230469 15.292969 110.117188 15.144531 109.976562 15.015625 C 101.496094 6.953125 88.914062 2.769531 87.59375 2.355469 C 83.203125 0.730469 78.546875 -0.0625 73.867188 0.00390625 L 73.742188 0.00390625 C 63.621094 0.00390625 55.460938 3.09375 49.5 9.289062 C 38.664062 20.480469 39.101562 37.554688 39.121094 38.203125 L 39.121094 40.664062 C 35.144531 40.773438 31.96875 44.011719 31.949219 47.984375 L 31.949219 54.71875 C 31.957031 58.789062 35.25 62.078125 39.316406 62.089844 C 40.25 62.082031 41.179688 61.902344 42.039062 61.546875 L 42.039062 66.007812 C 42.054688 75.03125 46.382812 83.511719 53.695312 88.804688 L 53.695312 94.609375 C 47.226562 96.316406 25.105469 102.351562 16.746094 108.542969 C 7.460938 115.324219 4.933594 134.070312 4.839844 134.859375 L 0.125 170.617188 L 4.765625 171.21875 Z M 116.945312 127.679688 C 116.945312 129.847656 115.1875 131.605469 113.011719 131.605469 C 110.839844 131.605469 109.082031 129.847656 109.082031 127.679688 C 109.082031 125.507812 110.839844 123.746094 113.011719 123.746094 C 113.011719 123.746094 113.027344 123.746094 113.027344 123.746094 C 115.195312 123.753906 116.945312 125.511719 116.945312 127.679688 Z M 105.644531 47.984375 C 105.644531 46.480469 106.871094 45.253906 108.371094 45.253906 C 109.886719 45.253906 111.113281 46.480469 111.113281 47.984375 L 111.113281 54.726562 C 111.113281 56.234375 109.886719 57.453125 108.371094 57.453125 C 106.871094 57.453125 105.644531 56.234375 105.644531 54.726562 Z M 73.742188 145.785156 L 67.957031 135.171875 L 70.648438 124.859375 C 70.851562 124.082031 70.636719 123.246094 70.074219 122.664062 L 68.785156 121.3125 L 69.949219 119.367188 L 71.941406 122.09375 C 72.382812 122.679688 73.082031 123.039062 73.820312 123.027344 C 74.5625 123.027344 75.257812 122.675781 75.691406 122.074219 L 77.546875 119.503906 L 78.605469 121.300781 L 77.328125 122.582031 C 76.796875 123.1875 76.605469 124.023438 76.839844 124.796875 L 79.578125 135.296875 Z M 58.261719 95.664062 L 58.261719 91.5625 C 61.992188 93.324219 66.070312 94.238281 70.195312 94.238281 L 77.320312 94.238281 C 81.367188 94.238281 85.367188 93.355469 89.054688 91.65625 L 89.054688 95.652344 L 76.15625 113.457031 C 75.882812 113.683594 75.675781 113.96875 75.535156 114.304688 L 73.839844 116.78125 Z M 98.320312 100.714844 L 82.6875 129.347656 L 81.523438 124.90625 L 83.074219 123.359375 C 83.820312 122.605469 83.96875 121.453125 83.429688 120.539062 L 80.554688 115.421875 L 92.410156 99.054688 C 93.722656 99.414062 95.832031 99.964844 98.398438 100.714844 Z M 42.039062 54.726562 C 42.039062 56.234375 40.816406 57.453125 39.308594 57.453125 C 37.796875 57.453125 36.574219 56.234375 36.574219 54.726562 L 36.574219 47.984375 C 36.574219 46.480469 37.796875 45.253906 39.308594 45.253906 C 40.816406 45.253906 42.039062 46.480469 42.039062 47.984375 Z M 43.757812 42.136719 L 43.757812 38.117188 C 43.757812 37.957031 43.402344 22.226562 52.855469 12.476562 C 57.910156 7.277344 64.933594 4.628906 73.742188 4.628906 L 73.847656 4.628906 C 77.960938 4.566406 82.039062 5.25 85.898438 6.65625 L 86.109375 6.734375 C 92.808594 8.992188 99.085938 12.335938 104.695312 16.625 C 103.320312 17.917969 102.140625 19.410156 101.21875 21.054688 C 100.890625 21.667969 100.847656 22.390625 101.113281 23.035156 C 102.859375 27.894531 103.757812 33.015625 103.769531 38.175781 L 103.769531 42.214844 C 101.992188 43.601562 100.949219 45.71875 100.9375 47.976562 L 100.9375 57.261719 C 98.988281 55.109375 99.035156 49.890625 99.207031 48.230469 C 99.207031 48.160156 99.207031 48.082031 99.207031 47.984375 L 99.207031 37.058594 C 99.203125 35.773438 98.15625 34.742188 96.875 34.746094 C 96.523438 34.753906 96.175781 34.828125 95.863281 34.988281 C 91.96875 37.050781 87.695312 38.277344 83.308594 38.613281 C 84.03125 37.4375 84.691406 36.230469 85.277344 34.988281 C 85.804688 33.816406 85.28125 32.445312 84.113281 31.914062 C 83.433594 31.613281 82.652344 31.648438 82.007812 32.015625 C 68.203125 39.96875 51.542969 34.847656 51.371094 34.800781 C 50.164062 34.375 48.835938 35.003906 48.410156 36.214844 C 48.316406 36.46875 48.277344 36.738281 48.277344 37.011719 L 48.277344 47.957031 C 48.277344 48.035156 48.277344 48.109375 48.277344 48.203125 C 48.445312 49.847656 48.492188 54.953125 46.605469 57.15625 L 46.605469 47.984375 C 46.621094 45.699219 45.5625 43.539062 43.757812 42.136719 Z M 46.6875 66.007812 L 46.6875 62.472656 C 47.992188 62.101562 49.175781 61.367188 50.09375 60.359375 C 53.617188 56.421875 53.179688 49.179688 53 47.867188 L 53 40.03125 C 60.949219 41.792969 69.222656 41.519531 77.039062 39.261719 C 76.324219 40.328125 76.617188 41.769531 77.683594 42.476562 C 77.839844 42.582031 78 42.660156 78.167969 42.722656 C 78.832031 42.972656 84.453125 44.785156 94.59375 40.632812 L 94.59375 47.898438 C 94.46875 49.210938 93.957031 56.457031 97.5 60.390625 C 98.4375 61.425781 99.652344 62.171875 101.003906 62.542969 L 101.003906 66.050781 C 100.96875 79.0625 90.421875 89.59375 77.410156 89.613281 L 70.292969 89.613281 C 57.265625 89.597656 46.699219 79.046875 46.6875 66.023438 Z M 55.078125 99.054688 L 66.976562 115.292969 L 63.878906 120.484375 C 63.355469 121.375 63.492188 122.515625 64.207031 123.265625 L 65.753906 124.933594 L 64.640625 129.207031 L 49.175781 100.683594 C 51.703125 99.957031 53.773438 99.394531 55.078125 99.054688 Z M 55.078125 99.054688 " data-original="#000000" class="active-path" data-old_color="#662d91" fill="#662d91"/>
<path d="M 100.492188 140.683594 L 121.820312 140.683594 L 121.820312 144.179688 L 100.492188 144.179688 Z M 100.492188 140.683594 " data-original="#000000" class="active-path" data-old_color="#662d91" fill="#662d91"/>
</g></g> </svg>
