<?xml version="1.0"?>
<svg xmlns="http://www.w3.org/2000/svg" id="icons" enable-background="new 0 0 64 64" height="512px" viewBox="0 0 64 64" width="512px"><g><path d="m63 5h-20c-.553 0-1 .447-1 1v13h-1.991v-6.996c0-1.654-1.346-3-3-3h-24c-1.654 0-3 1.346-3 3v6.996h-6.996c-.002 0-.004.001-.007.001-.002 0-.004-.001-.006-.001-1.654 0-3 1.346-3 3v2c0 .031.015.057.018.087v33.913c0 .553.447 1 1 1h48 .001c.11 0 .213-.03.313-.063.024-.008.053-.005.076-.015.028-.013.048-.037.075-.051.314-.169.535-.489.535-.871 0-.001 0-.001 0-.001l-.017-29.021 12.997.023h.002c.265 0 .519-.105.706-.292.189-.188.294-.442.294-.708v-22.001c0-.553-.447-1-1-1zm-14.999 24.6.016 27.4h-4.008v-4.855c0-.025-.013-.047-.015-.072.002-.025.015-.047.015-.072 0-4.411-3.589-8-8-8h-4v-2.743c4.752-2.52 7.999-7.513 8-13.256v-3.002h1.991v6.001c0 .347.18.67.476.852.16.099.342.148.524.148.154 0 .309-.035.45-.107zm-20.544 27.4 4.238-11h.856l-4.238 11zm-3.718 0-2.951-9.611.666.443c.048.032.101.049.151.071.036.016.069.038.107.05.098.03.197.047.296.047h.001.003c.096-.001.19-.02.283-.047.01-.003.02-.002.03-.005l2.684-.895 2.684.895c.011.003.021.002.031.005.092.027.187.046.282.047h.003.001c.099 0 .198-.017.295-.047.038-.012.071-.034.108-.051.051-.022.103-.039.15-.07l.38-.253-3.63 9.421zm-3.004 0-3.377-11h.911l3.377 11zm-12.741-4.928c.002-.025.015-.047.015-.072 0-3.309 2.691-6 6-6h1.257l3.377 11h-10.634v-4.855c0-.026-.013-.047-.015-.073zm4.015-24.095v-4.977h26v.966c0 .013-.007.022-.007.034s.007.021.007.034v3.966c0 7.168-5.832 13-13 13s-13-5.832-13-13c0-.004-.002-.008-.002-.012s.002-.008.002-.011zm13 15.023c1.755 0 3.434-.318 5-.875v2.34l-2.148 1.432-2.535-.845c-.036-.012-.071-.006-.107-.014-.069-.015-.137-.026-.209-.026s-.14.012-.208.026c-.036.008-.072.002-.108.014l-2.535.845-2.148-1.432v-2.34c1.564.557 3.243.875 4.998.875zm9.686 3h1.313c3.309 0 6 2.691 6 6 0 .025.013.047.015.072-.002.025-.015.047-.015.072v4.856h-11.551zm7.305-23h-1.991v-2h1.991zm-29.991-10.996c0-.552.448-1 1-1h24c.552 0 1 .448 1 1v7.998.001.001.996h-26v-.998zm-9.009 8.996c.002 0 .004-.001.006-.001.003 0 .005.001.007.001h6.996v2h-8.009v-1c0-.552.448-1 1-1zm-.982 4h7.991v2.977c0 .004.002.008.002.012s-.002.007-.002.011c0 5.743 3.248 10.737 8 13.257v2.743h-4c-4.411 0-8 3.589-8 8 0 .025.013.047.015.072-.002.025-.015.047-.015.072v4.856h-3.991zm59.982 1.999-12.998-.022h-.001-.001s0 0-.001 0c-.003 0-.006.002-.009.002-.106.015-.209.033-.309.063-.032.011-.066.018-.098.031-.011.005-.023.006-.034.012l-4.549 2.292v-22.377h18z" data-original="#000000" class="active-path" data-old_color="#000000" fill="#FFFFFF"/><path d="m48 16h10.004c.553 0 1-.447 1-1s-.447-1-1-1h-10.004c-.553 0-1 .447-1 1s.447 1 1 1z" data-original="#000000" class="active-path" data-old_color="#000000" fill="#FFFFFF"/><path d="m48 12h10c.553 0 1-.447 1-1s-.447-1-1-1h-10c-.553 0-1 .447-1 1s.447 1 1 1z" data-original="#000000" class="active-path" data-old_color="#000000" fill="#FFFFFF"/><path d="m48 20h10.001c.553 0 1-.447 1-1s-.447-1-1-1h-10.001c-.553 0-1 .447-1 1s.447 1 1 1z" data-original="#000000" class="active-path" data-old_color="#000000" fill="#FFFFFF"/><path d="m48 24.001h5c.553 0 1-.447 1-1s-.447-1-1-1h-5c-.553 0-1 .447-1 1s.447 1 1 1z" data-original="#000000" class="active-path" data-old_color="#000000" fill="#FFFFFF"/><path d="m22.015 17.001h2.003v2.002c0 .553.447 1 1 1s1-.447 1-1v-2.002h2.002c.553 0 1-.447 1-1s-.447-1-1-1h-2.002v-2.003c0-.553-.447-1-1-1s-1 .447-1 1v2.003h-2.003c-.553 0-1 .447-1 1s.447 1 1 1z" data-original="#000000" class="active-path" data-old_color="#000000" fill="#FFFFFF"/></g> </svg>
