<svg id="Layer_3" enable-background="new 0 0 64 64" height="512" viewBox="0 0 64 64" width="512" xmlns="http://www.w3.org/2000/svg"><path d="m61 37.641c0 5.15-1.87 10.11-5.26 13.99l-4.44 5.07c-2.39 2.73-5.84 4.3-9.46 4.3-1.75 0-3.45-.36-5.04-1.06l-.94-.41c-7.04-3.08-13.27-7.78-18.15-13.67.75.09 1.51.14 2.29.14v-2c-1.86 0-3.64-.3-5.31-.86l-1.69-3.36c-.66-1.32-1-2.8-1-4.27 0-.91.12-1.8.36-2.64l1.93.42 1.41 1.41 2.5-2.5c1.43-1.42 3.32-2.2 5.33-2.2h.93c2.02 0 3.94-.62 5.54-1.77v1.16c0 1.42-.27 2.8-.81 4.09l-.05.03.02.04c-.26.66-.6 1.29-1 1.89-1.41 2.13-2.16 4.61-2.16 7.16v2.4h2v-2.4c0-2.16.63-4.25 1.83-6.05.2-.3.39-.61.56-.92 1.06 1.91 1.61 4.06 1.61 6.25v.12h2v-.12c0-2.72-.74-5.39-2.14-7.72l-.49-.81c.42-1.27.63-2.6.63-3.96v-3.09c1.29-1.67 2-3.7 2-5.84v-2.66c0-1.31.19-2.59.56-3.8h2.44c1.56 0 3.06.75 4 2 .64.86 1 1.92 1 3v.51c0 1.34-.52 2.59-1.47 3.54l-3.24 3.24 1.41 1.41 3.1-3.09 1.46 2.44c.48.8.74 1.72.74 2.65 0 .1 0 .2-.01.3-.09 1.62-.93 3.09-2.29 3.99l-1.14.76c-1.59 1.06-2.67 2.68-3.04 4.55l-.5 2.5 1.96.39.5-2.5c.27-1.35 1.05-2.51 2.19-3.27l1.14-.76c.44-.29.83-.62 1.19-.99v1.72c0 .28-.01.56-.03.84-.15 1.86-.77 3.64-1.81 5.21-1.41 2.13-2.16 4.61-2.16 7.16v3.4h2v-3.4c0-2.16.63-4.25 1.83-6.05.61-.91 1.1-1.89 1.45-2.91.7 1.41 1.63 2.69 2.75 3.81l.26.25 1.41-1.41-.26-.26c-1.66-1.66-2.84-3.75-3.41-6.04l-.05-.18c.02-.14.02-.28.02-.42v-6.39h-.01c.01-.1.01-.2.01-.3 0-1.29-.36-2.57-1.02-3.68l-1.87-3.1c.58-1.03.89-2.2.89-3.41v-.51c0-.34-.02-.67-.07-1h.9c2.52 0 4.95.76 7.02 2.19 5.73 3.96 9.15 10.49 9.15 17.45z" fill="#e47c6e"/><path d="m35 3.411 2.58 2.59-1.19 1.19c-2.83 2.83-4.39 6.6-4.39 10.61v2.66c0 2.01-.79 3.91-2.21 5.33s-3.32 2.21-5.33 2.21h-.93c-2.54 0-4.94.99-6.74 2.79l-2.5 2.5-1.93-.42c.73-2.53 2.47-4.67 4.91-5.89l2.18-1.09c2.8-1.4 4.55-4.22 4.55-7.36 0-1.86-.64-3.68-1.81-5.14l-.83-1.04c-.69-.87-1.14-1.91-1.29-3 .6-.58 1.24-1.09 1.93-1.52v1.17h2v-2.17c.65-.26 1.33-.46 2.03-.6-.02.2-.03.4-.03.6v2.17h2l.05.02c-1.34 2.72-2.05 5.73-2.05 8.85v.13h2v-.13c0-4.31 1.5-8.39 4.27-11.64.31-.37.65-.74 1-1.09z" fill="#fadfb2"/><path d="m28.38 6.001h1.51c-.71.96-1.32 1.96-1.84 3.02l-.05-.02v-2.17c0-.28.02-.55.06-.82.11-.01.21-.01.32-.01z" fill="#fadfb2"/><path d="m22 18.531c0 2.38-1.32 4.51-3.45 5.57l-2.18 1.09c-3.93 1.97-6.37 5.92-6.37 10.32 0 1.78.42 3.57 1.21 5.16l.61 1.23c-5.26-2.9-8.82-8.49-8.82-14.9 0-6.8 3.99-12.85 10.1-15.54-.49 2.08-1.16 4.13-2.02 6.13v.02l1.84.76c2.04-4.75 3.08-9.79 3.08-14.97v-.4h2v5.29.17c0 1.86.64 3.69 1.8 5.14l.83 1.04c.88 1.1 1.37 2.48 1.37 3.89z" fill="#f5cf88"/><path d="m52.99 18.551c-2.41-1.67-5.23-2.55-8.16-2.55h-1.51c-.2-.42-.44-.83-.72-1.2-1.32-1.76-3.41-2.8-5.6-2.8h-1.65c.62-1.24 1.45-2.39 2.45-3.4l1.9-1.9c.39-.39.39-1.02 0-1.41l-4-4c-.39-.39-1.02-.39-1.41 0l-2.44 2.44c-.09.09-.18.18-.26.27h-2.86c.25-.47.58-.91.97-1.3l-1.41-1.41c-.82.82-1.43 1.78-1.81 2.84-.95.12-1.87.35-2.76.66-.34-1.31-1.03-2.51-2.02-3.5l-1.41 1.41c.81.81 1.35 1.81 1.58 2.9-.65.34-1.28.73-1.87 1.18v-4.78c0-.55-.45-1-1-1h-4c-.56 0-1 .45-1 1v1.4c0 1.93-.15 3.83-.45 5.72-7.53 2.71-12.55 9.82-12.55 17.88 0 8.62 5.78 15.93 13.67 18.23 5.28 7.03 12.32 12.6 20.39 16.14l.93.4c1.86.82 3.82 1.23 5.85 1.23 4.2 0 8.2-1.82 10.97-4.98l4.44-5.08c3.71-4.23 5.75-9.67 5.75-15.3 0-7.62-3.74-14.76-10.01-19.09zm-49.99 8.45c0-6.8 3.99-12.85 10.1-15.54-.49 2.08-1.16 4.13-2.02 6.13v.02l1.84.76c2.04-4.75 3.08-9.79 3.08-14.97v-.4h2v5.29.17c0 1.86.64 3.69 1.8 5.14l.83 1.04c.88 1.1 1.37 2.48 1.37 3.89 0 2.38-1.32 4.51-3.45 5.57l-2.18 1.09c-3.93 1.97-6.37 5.92-6.37 10.32 0 1.78.42 3.57 1.21 5.16l.61 1.23c-5.26-2.9-8.82-8.49-8.82-14.9zm52.74 24.63-4.44 5.07c-2.39 2.73-5.84 4.3-9.46 4.3-1.75 0-3.45-.36-5.04-1.06l-.94-.41c-7.04-3.08-13.27-7.78-18.15-13.67.75.09 1.51.14 2.29.14v-2c-1.86 0-3.64-.3-5.31-.86l-1.69-3.36c-.66-1.32-1-2.8-1-4.27 0-.91.12-1.8.36-2.64.73-2.53 2.47-4.67 4.91-5.89l2.18-1.09c2.8-1.4 4.55-4.22 4.55-7.36 0-1.86-.64-3.68-1.81-5.14l-.83-1.04c-.69-.87-1.14-1.91-1.29-3 .6-.58 1.24-1.09 1.93-1.52v1.17h2v-2.17c.65-.26 1.33-.46 2.03-.6-.02.2-.03.4-.03.6v2.17h2v-2.17c0-.28.02-.55.06-.82.11-.01.21-.01.32-.01h1.51c-.71.96-1.32 1.96-1.84 3.02-1.34 2.72-2.05 5.73-2.05 8.85v.13h2v-.13c0-4.31 1.5-8.39 4.27-11.64.31-.37.65-.74 1-1.09l1.73-1.73 2.58 2.59-1.19 1.19c-2.83 2.83-4.39 6.6-4.39 10.61v2.66c0 2.01-.79 3.91-2.21 5.33s-3.32 2.21-5.33 2.21h-.93c-2.54 0-4.94.99-6.74 2.79l-2.5 2.5 1.41 1.41 2.5-2.5c1.43-1.42 3.32-2.2 5.33-2.2h.93c2.02 0 3.94-.62 5.54-1.77v1.16c0 1.42-.27 2.8-.81 4.09l-.05.03.02.04c-.26.66-.6 1.29-1 1.89-1.41 2.13-2.16 4.61-2.16 7.16v2.4h2v-2.4c0-2.16.63-4.25 1.83-6.05.2-.3.39-.61.56-.92 1.06 1.91 1.61 4.06 1.61 6.25v.12h2v-.12c0-2.72-.74-5.39-2.14-7.72l-.49-.81c.42-1.27.63-2.6.63-3.96v-3.09c1.29-1.67 2-3.7 2-5.84v-2.66c0-1.31.19-2.59.56-3.8h2.44c1.56 0 3.06.75 4 2 .64.86 1 1.92 1 3v.51c0 1.34-.52 2.59-1.47 3.54l-3.24 3.24 1.41 1.41 3.1-3.09 1.46 2.44c.48.8.74 1.72.74 2.65 0 .1 0 .2-.01.3-.09 1.62-.93 3.09-2.29 3.99l-1.14.76c-1.59 1.06-2.67 2.68-3.04 4.55l-.5 2.5 1.96.39.5-2.5c.27-1.35 1.05-2.51 2.19-3.27l1.14-.76c.44-.29.83-.62 1.19-.99v1.72c0 .28-.01.56-.03.84-.15 1.86-.77 3.64-1.81 5.21-1.41 2.13-2.16 4.61-2.16 7.16v3.4h2v-3.4c0-2.16.63-4.25 1.83-6.05.61-.91 1.1-1.89 1.45-2.91.7 1.41 1.63 2.69 2.75 3.81l.26.25 1.41-1.41-.26-.26c-1.66-1.66-2.84-3.75-3.41-6.04l-.05-.18c.02-.14.02-.28.02-.42v-6.39h-.01c.01-.1.01-.2.01-.3 0-1.29-.36-2.57-1.02-3.68l-1.87-3.1c.58-1.03.89-2.2.89-3.41v-.51c0-.34-.02-.67-.07-1h.9c2.52 0 4.95.76 7.02 2.19 5.73 3.96 9.15 10.49 9.15 17.45 0 5.15-1.87 10.11-5.26 13.99z"/></svg>