<?xml version="1.0" encoding="utf-8"?>
<!-- Generator: Adobe Illustrator 22.0.1, SVG Export Plug-In . SVG Version: 6.00 Build 0)  -->
<svg version="1.1" id="Layer_1" xmlns="http://www.w3.org/2000/svg" xmlns:xlink="http://www.w3.org/1999/xlink" x="0px" y="0px"
	 viewBox="0 0 1920 1080" style="enable-background:new 0 0 1920 1080;" xml:space="preserve">
<style type="text/css">
	.st0{fill:none;}
	.st1{enable-background:new    ;}
	.st2{fill:#666666;}
	.st3{fill:#976CC4;}
	.st4{fill:url(#SVGID_1_);}
	.st5{fill:url(#SVGID_2_);}
	.st6{fill:url(#SVGID_3_);}
	.st7{fill:url(#SVGID_4_);}
	.st8{fill:url(#SVGID_5_);}
	.st9{fill:url(#SVGID_6_);}
	.st10{fill:url(#SVGID_7_);}
	.st11{fill:url(#SVGID_8_);}
</style>
<g>
	
		<rect x="804.9" y="353.1" transform="matrix(1.625994e-03 -1 1 1.625994e-03 291.0293 1468.0594)" class="st0" width="151.6" height="470.4"/>
	<g class="st1">
		<path class="st2" d="M730.8,512.2l31.9,94.3l0.4,0l30.5-94.2l42.4,0.1l-0.2,137.1l-28.2,0l0.2-97.2h-0.4l-33.8,97.1l-23.2,0
			l-33.4-96.2l-0.4,0l-0.2,96.2l-28.2,0l0.2-137.1L730.8,512.2z"/>
		<path class="st2" d="M965.1,512.6l0,25.3l-72.4-0.1l0,29.4l66.4,0.1l0,23.4l-66.4-0.1l-0.1,33.6l73.9,0.1l0,25.3l-104.1-0.2
			l0.2-137.1L965.1,512.6z"/>
		<path class="st2" d="M1046.1,512.8c8.8,0,17.1,1.4,24.7,4.3c7.6,2.8,14.2,7.1,19.8,12.7c5.6,5.6,9.9,12.7,13,21.1
			c3.1,8.5,4.7,18.4,4.7,29.8c0,10-1.3,19.2-3.9,27.6c-2.6,8.4-6.5,15.7-11.7,21.9c-5.2,6.1-11.7,11-19.4,14.5
			c-7.8,3.5-16.9,5.3-27.4,5.2l-59.1-0.1l0.2-137.1L1046.1,512.8z M1043.8,624.5c4.3,0,8.6-0.7,12.7-2.1c4.1-1.4,7.7-3.7,11-7
			c3.2-3.3,5.8-7.5,7.7-12.8c1.9-5.2,2.9-11.6,2.9-19.2c0-6.9-0.7-13.2-2-18.7c-1.3-5.6-3.5-10.3-6.6-14.3c-3.1-4-7.1-7-12.2-9.1
			c-5.1-2.1-11.3-3.2-18.7-3.2l-21.5,0l-0.1,86.4L1043.8,624.5z"/>
	</g>
	
		<rect x="1060.4" y="511.2" transform="matrix(1.625994e-03 -1 1 1.625994e-03 582.305 1759.1609)" class="st0" width="223.6" height="153.6"/>
	<g class="st1">
		<path class="st3" d="M1230.7,620.8c-1.6,1.8-4.2,4.2-7.6,7.4c-3.4,3.1-7.6,6.3-12.4,9.4c-4.9,3.1-10.3,5.8-16.3,8
			c-6,2.2-12.3,3.3-19,3.3c-6.1,0-12.1-1-17.9-2.8c-5.8-1.9-11-4.7-15.7-8.5c-4.6-3.8-8.3-8.7-11.1-14.6c-2.8-5.9-4.1-13-4.1-21.2
			c0-6.7,0.5-12.5,1.4-17.4c0.9-4.8,2.1-9.1,3.6-12.8c1.5-3.7,3.2-6.8,5.1-9.4c1.9-2.6,3.8-5,5.7-7c2.4-2.7,5.3-5.2,8.7-7.6
			c3.4-2.4,7.1-4.5,11.1-6.5c4-1.9,8.1-3.5,12.6-4.6c4.4-1.1,8.9-1.7,13.3-1.7c8.1,0,14.4,1.4,18.9,4.1c4.5,2.7,6.8,6.4,6.8,11.2
			c0,3-0.9,5.7-2.7,8.3c1.5-0.4,3.4-1.2,5.7-2.2c2.3-1,4.7-2.1,7.1-3.2c2.4-1.1,4.5-2.1,6.4-3c1.9-0.9,3.1-1.6,3.7-2
			c0.3-0.3,0.6-0.4,1-0.3c0.4,0.1,0.6,0.3,0.6,0.8c0,1.9-0.4,3.5-1.1,4.8c-0.8,1.3-1.6,2.3-2.7,3c-2.4,1.5-5.8,3.4-10.3,5.6
			c-4.5,2.2-9.5,4.6-14.9,7c-5.5,2.5-11.1,4.9-16.9,7.4s-11.3,4.8-16.5,7c-5.2,2.2-9.6,4.2-13.4,5.9c-3.8,1.7-6.4,2.9-7.7,3.7
			c0,5.1,1,9.8,3,14.2c2,4.4,4.8,8.3,8.4,11.5c3.6,3.3,7.9,5.9,12.9,7.7c5,1.9,10.5,2.8,16.5,2.8c5.4,0,10.2-0.5,14.6-1.7
			c4.3-1.1,8-2.4,11-3.8c3-1.4,5.3-2.7,7.1-3.8c1.7-1.1,2.7-1.7,2.8-1.7c0.6,0,1.2,0.3,1.8,0.8
			C1230.4,619.6,1230.7,620.2,1230.7,620.8z M1151.9,586.4c2.5-0.9,5.4-2,8.6-3.2c3.2-1.3,6.3-2.6,9.4-4.1c3.1-1.5,5.9-2.9,8.4-4.2
			c2.5-1.3,4.5-2.5,5.8-3.6c2.7-1.9,4-5.2,4-9.8c0-1.8-0.3-3.7-1-5.6c-0.7-1.9-1.7-3.7-3-5.3c-1.3-1.6-3-2.8-4.9-3.8
			c-1.9-1-4.1-1.5-6.5-1.5c-2.1,0-4.3,0.7-6.7,2.1c-2.4,1.4-4.6,3.7-6.7,6.9c-2.1,3.2-3.9,7.5-5.3,12.8
			C1152.6,572.3,1151.9,578.8,1151.9,586.4z"/>
	</g>
	
		<rect x="1363" y="390.8" transform="matrix(1.625994e-03 -1 1 1.625994e-03 847.158 2027.0535)" class="st0" width="151.6" height="396.9"/>
	<g class="st1">
		<path class="st2" d="M1315.4,513.2c8.6,0,15.9,1.3,21.9,3.8c6,2.5,10.9,5.8,14.7,9.9c3.8,4.1,6.5,8.8,8.2,14
			c1.7,5.3,2.6,10.7,2.6,16.3c0,5.5-0.9,10.9-2.6,16.2c-1.7,5.3-4.5,10-8.3,14.1c-3.8,4.1-8.7,7.4-14.7,9.9
			c-6,2.5-13.3,3.7-21.9,3.7l-31.7-0.1l-0.1,49.2l-30.1,0l0.2-137.1L1315.4,513.2z M1307,577.7c3.5,0,6.8-0.2,10-0.8
			c3.2-0.5,6-1.5,8.5-3c2.4-1.5,4.4-3.5,5.9-6.2c1.5-2.7,2.2-6.2,2.2-10.6c0-4.3-0.7-7.9-2.2-10.6c-1.5-2.7-3.4-4.8-5.8-6.2
			c-2.4-1.5-5.2-2.5-8.4-3c-3.2-0.5-6.5-0.8-10-0.8l-23.4,0l-0.1,41.1L1307,577.7z"/>
		<path class="st2" d="M1435.8,513.4l51,137.2l-31.3-0.1l-10.3-30.5l-51.3-0.1l-10.8,30.5l-30.3,0l52.1-137L1435.8,513.4z
			 M1437.4,597.5l-17.2-50.3h-0.4l-17.9,50.3L1437.4,597.5z"/>
		<path class="st2" d="M1529.1,513.5l-0.2,111.7l66.8,0.1l0,25.3l-97-0.2l0.2-137.1L1529.1,513.5z"/>
	</g>
</g>
<g>
	
		<linearGradient id="SVGID_1_" gradientUnits="userSpaceOnUse" x1="419.4197" y1="586.0356" x2="571.4111" y2="498.6126" gradientTransform="matrix(1 1.625996e-03 1.625996e-03 -1 -0.753 1075.244)">
		<stop  offset="0" style="stop-color:#A25CA8"/>
		<stop  offset="0.2529" style="stop-color:#9451A4"/>
		<stop  offset="0.7277" style="stop-color:#703698"/>
		<stop  offset="1" style="stop-color:#582491"/>
	</linearGradient>
	<path class="st4" d="M385,643.9L385,643.9c24.7,24.8,65.2,24.8,90,0.1l130.9-130.5c24.9-24.8,24.9-65.1,0.1-90l0,0
		c-24.7-24.8-65.2-24.8-90-0.1L385.2,553.9C360.4,578.6,360.3,619.1,385,643.9z"/>
	<g>
		
			<linearGradient id="SVGID_2_" gradientUnits="userSpaceOnUse" x1="482.5973" y1="342.1821" x2="670.6299" y2="450.7428" gradientTransform="matrix(1 0 0 -1 0 1077.89)">
			<stop  offset="1.241987e-03" style="stop-color:#F2F2F2"/>
			<stop  offset="0.1035" style="stop-color:#E2E2E2"/>
			<stop  offset="0.3476" style="stop-color:#C2C2C2"/>
			<stop  offset="0.5836" style="stop-color:#ACACAC"/>
			<stop  offset="0.8058" style="stop-color:#9E9E9E"/>
			<stop  offset="1" style="stop-color:#999999"/>
		</linearGradient>
		<path class="st5" d="M492.8,668.7l-0.1,67.4c-0.1,35,28.5,63.7,63.5,63.7l0,0c35,0.1,63.7-28.5,63.7-63.5l0.3-196.5L492.8,668.7z"
			/>
	</g>
	
		<linearGradient id="SVGID_3_" gradientUnits="userSpaceOnUse" x1="385.0211" y1="431.9996" x2="605.7211" y2="652.6995" gradientTransform="matrix(1 1.625996e-03 1.625996e-03 -1 -0.753 1075.244)">
		<stop  offset="1.241987e-03" style="stop-color:#000000;stop-opacity:0.7"/>
		<stop  offset="1" style="stop-color:#000000;stop-opacity:0"/>
	</linearGradient>
	<path class="st6" d="M385,643.9L385,643.9c24.7,24.8,65.2,24.8,90,0.1l130.9-130.5c24.9-24.8,24.9-65.1,0.1-90l0,0
		c-24.7-24.8-65.2-24.8-90-0.1L385.2,553.9C360.4,578.6,360.3,619.1,385,643.9z"/>
	<g>
		
			<linearGradient id="SVGID_4_" gradientUnits="userSpaceOnUse" x1="200.4266" y1="334.4393" x2="404.492" y2="538.5048" gradientTransform="matrix(1 1.626000e-03 1.838092e-03 -1.1304 -0.7866 1097.3678)">
			<stop  offset="1.241987e-03" style="stop-color:#F2F2F2"/>
			<stop  offset="0.3708" style="stop-color:#CCCCCC"/>
			<stop  offset="0.7817" style="stop-color:#A7A7A7"/>
			<stop  offset="1" style="stop-color:#999999"/>
		</linearGradient>
		<path class="st7" d="M305.2,799.5h-6c-35-0.1-63.6-28.7-63.5-63.7l0.4-262.8c0.1-35.1,28.6-63.6,63.7-63.5h6
			c35,0.1,63.6,28.7,63.5,63.7L368.9,736C368.8,771,340.2,799.5,305.2,799.5z"/>
		
			<linearGradient id="SVGID_5_" gradientUnits="userSpaceOnUse" x1="302.4843" y1="608.9566" x2="302.4843" y2="263.9373" gradientTransform="matrix(1 1.626000e-03 1.838092e-03 -1.1304 -0.7866 1097.3678)">
			<stop  offset="0" style="stop-color:#000000;stop-opacity:0.7"/>
			<stop  offset="1" style="stop-color:#000000;stop-opacity:0"/>
		</linearGradient>
		<path class="st8" d="M305.2,799.5h-6c-35-0.1-63.6-28.7-63.5-63.7l0.4-262.8c0.1-35.1,28.6-63.6,63.7-63.5h6
			c35,0.1,63.6,28.7,63.5,63.7L368.9,736C368.8,771,340.2,799.5,305.2,799.5z"/>
		
			<linearGradient id="SVGID_6_" gradientUnits="userSpaceOnUse" x1="465.3755" y1="423.9508" x2="312.4849" y2="688.7653" gradientTransform="matrix(1 1.625996e-03 1.625996e-03 -1 -0.753 1075.244)">
			<stop  offset="0" style="stop-color:#A25CA8"/>
			<stop  offset="1" style="stop-color:#582491"/>
		</linearGradient>
		<path class="st9" d="M471.7,550.9L471.7,550.9L344.4,423.2c-24.7-24.8-65.2-24.8-90-0.1l0,0c-24.9,24.8-24.9,65.1-0.1,90
			L384.8,644c24.7,24.8,65.2,24.8,90,0.1l0,0c1.7-1.6,3.2-3.4,4.6-5.1l0,0l70.6-72C512.9,587.8,471.7,550.9,471.7,550.9z"/>
	</g>
	
		<linearGradient id="SVGID_7_" gradientUnits="userSpaceOnUse" x1="261.9368" y1="709.6365" x2="341.1327" y2="788.8323" gradientTransform="matrix(1 1.625996e-03 1.625996e-03 -1 -0.753 1075.244)">
		<stop  offset="0" style="stop-color:#A25CA8"/>
		<stop  offset="0.3329" style="stop-color:#8D4CA1"/>
		<stop  offset="1" style="stop-color:#582491"/>
	</linearGradient>
	<circle class="st10" cx="302" cy="326.5" r="56"/>
	
		<linearGradient id="SVGID_8_" gradientUnits="userSpaceOnUse" x1="532.2368" y1="709.676" x2="611.4326" y2="788.8718" gradientTransform="matrix(1 1.625996e-03 1.625996e-03 -1 -0.753 1075.244)">
		<stop  offset="1.241987e-03" style="stop-color:#B3B3B3"/>
		<stop  offset="1.390564e-02" style="stop-color:#B1B1B1"/>
		<stop  offset="0.3232" style="stop-color:#868686"/>
		<stop  offset="0.6015" style="stop-color:#676767"/>
		<stop  offset="0.8365" style="stop-color:#545454"/>
		<stop  offset="1" style="stop-color:#4D4D4D"/>
	</linearGradient>
	<circle class="st11" cx="572.3" cy="326.9" r="56"/>
</g>
</svg>
