<?xml version="1.0"?>
<svg xmlns="http://www.w3.org/2000/svg" height="512px" viewBox="-28 -18 607 607.99805" width="512px" class=""><g><path d="m139.566406 380.476562 122.261719 39.382813v-178.960937l-122.261719-39.375zm0 0" data-original="#000000" class="active-path" data-old_color="#000000" fill="#662D91"/><path d="m391.652344 189.53125-116.101563-37.449219-116.105469 37.449219 116.105469 37.441406zm0 0" data-original="#000000" class="active-path" data-old_color="#000000" fill="#662D91"/><path d="m359.472656 415.566406-81.25 26.199219c-1.757812.5625-3.640625.5625-5.394531 0l-144.589844-46.625c-3.625-1.148437-6.101562-4.5-6.136719-8.304687v-197.304688c.039063-3.808594 2.515626-7.160156 6.140626-8.308594l144.648437-46.625c1.75-.558594 3.628906-.558594 5.378906 0l144.589844 46.625c3.628906 1.148438 6.105469 4.5 6.140625 8.308594v81.660156c35.027344-10.585937 73.035156-2.730468 100.996094 20.882813.859375-8.734375 1.300781-17.550781 1.300781-26.347657 0-146.523437-119.207031-265.726562-265.726563-265.726562-146.523437 0-265.726562 119.199219-265.726562 265.726562 0 146.53125 119.203125 265.730469 265.726562 265.730469 42.761719-.011719 84.890626-10.324219 122.824219-30.070312l1.824219-43.378907c-13.542969-11.4375-24.097656-26.003906-30.746094-42.441406zm0 0" data-original="#000000" class="active-path" data-old_color="#000000" fill="#662D91"/><path d="m411.535156 278.183594v-76.660156l-132.242187 42.597656v178.953125l75.027343-24.183594c-1.738281-7.808594-2.605468-15.785156-2.589843-23.78125-.269531-41.09375 22.957031-78.730469 59.804687-96.925781zm0 0" data-original="#000000" class="active-path" data-old_color="#000000" fill="#662D91"/><path d="m460.1875 483.644531c-18.558594.019531-36.808594-4.746093-52.980469-13.839843l-4.222656 100.195312 48.777344-42.035156c4.722656-4.476563 12.125-4.476563 16.84375 0l48.78125 42.035156-4.222657-100.195312c-16.171874 9.09375-34.425781 13.859374-52.976562 13.839843zm0 0" data-original="#000000" class="active-path" data-old_color="#000000" fill="#662D91"/><path d="m460.1875 284.035156c-50.296875 0-91.070312 40.777344-91.070312 91.074219s40.773437 91.070313 91.070312 91.070313 91.070312-40.773438 91.070312-91.070313c-.058593-50.273437-40.796874-91.015625-91.070312-91.074219zm57.710938 61.097656-66.054688 66.476563c-1.582031 1.796875-3.789062 2.917969-6.171875 3.136719h-.027344c-2.386719-.21875-4.605469-1.355469-6.179687-3.164063l-37.019532-37.816406c-3.421874-3.425781-3.417968-8.972656.007813-12.402344 3.425781-3.417969 8.976563-3.414062 12.402344.011719l30.84375 31.128906 59.847656-59.855468c3.457031-3.359376 8.972656-3.300782 12.363281.125 3.386719 3.425781 3.382813 8.941406-.011718 12.363281zm0 0" data-original="#000000" class="active-path" data-old_color="#000000" fill="#662D91"/></g> </svg>
