<?xml version="1.0"?>
<svg xmlns="http://www.w3.org/2000/svg" height="512px" viewBox="0 0 192 192" width="512px"><g><g id="_24-megaphone" data-name="24-megaphone"><path d="m144 16h-24a8 8 0 0 0 -8 8c0 10.8-5.75 18.931-17.578 24.845a74.728 74.728 0 0 1 -30.422 7.155h-32a32.036 32.036 0 0 0 -32 32v16a32.051 32.051 0 0 0 25.1 31.242l7.012 42.073a8 8 0 0 0 7.888 6.685h24a8 8 0 0 0 8-8v-39.416a73.784 73.784 0 0 1 22.422 6.571c11.828 5.914 17.578 14.045 17.578 24.845a8 8 0 0 0 8 8h24a8 8 0 0 0 8-8v-144a8 8 0 0 0 -8-8zm-128 88v-16a16.019 16.019 0 0 1 16-16h24v48h-24a16.019 16.019 0 0 1 -16-16zm40 64h-9.223l-5.334-32h14.557zm56-32.489c-11.3-9.057-26.726-13.74-40-15.091v-48.84c13.274-1.351 28.7-6.034 40-15.091zm24 24.489h-8v-128h8z" data-original="#000000" class="active-path" data-old_color="#000000" fill="#93278F"/><path d="m176 88h16v16h-16z" data-original="#000000" class="active-path" data-old_color="#000000" fill="#93278F"/><path d="m164.686 55.999h22.627v16.001h-22.627z" transform="matrix(.707 -.707 .707 .707 6.294 143.196)" data-original="#000000" class="active-path" data-old_color="#000000" fill="#93278F"/><path d="m167.999 116.686h16.001v22.627h-16.001z" transform="matrix(.707 -.707 .707 .707 -38.96 161.941)" data-original="#000000" class="active-path" data-old_color="#000000" fill="#93278F"/></g></g> </svg>
