<?xml version="1.0" encoding="utf-8"?>
<!-- Generator: Adobe Illustrator 22.0.1, SVG Export Plug-In . SVG Version: 6.00 Build 0)  -->
<svg version="1.1" id="Layer_1" xmlns="http://www.w3.org/2000/svg" xmlns:xlink="http://www.w3.org/1999/xlink" x="0px" y="0px"
	 viewBox="0 0 43.5 43.7" style="enable-background:new 0 0 43.5 43.7;" xml:space="preserve">
<style type="text/css">
	.st0{fill:#CCCCCC;stroke:#FFFFFF;stroke-width:0.5;stroke-miterlimit:10;}
</style>
<g>
	<g>
		<g id="notifications-none_9_">
			<path class="st0" d="M21.8,40.1c2,0,3.7-1.7,3.7-3.7h-7.4C18.1,38.4,19.7,40.1,21.8,40.1z M33.8,29V18.8c0-5.7-3.9-10.4-9.2-11.7
				V5.8c0-1.5-1.3-2.8-2.8-2.8S19,4.4,19,5.8v1.3C13.6,8.4,9.8,13,9.8,18.8V29l-3.7,3.7v1.9h31.5v-1.9L33.8,29z M30.1,30.8H13.4v-12
				c0-4.6,3.7-8.3,8.3-8.3s8.3,3.7,8.3,8.3V30.8z"/>
		</g>
	</g>
</g>
</svg>
