<?xml version="1.0"?>
<svg xmlns="http://www.w3.org/2000/svg" xmlns:xlink="http://www.w3.org/1999/xlink" version="1.1" id="Capa_1" x="0px" y="0px" viewBox="0 0 512 512" style="enable-background:new 0 0 512 512;" xml:space="preserve" width="512px" height="512px"><g><g>
	<path d="M419.918,186.618c-54.521-39.27-111.204-60.026-163.918-60.026s-109.396,20.757-163.918,60.026   c-40.688,29.307-65.828,58.375-66.879,59.598c-4.827,5.621-4.827,13.924,0,19.545c1.051,1.223,26.191,30.291,66.879,59.597   c54.521,39.27,111.204,60.026,163.918,60.026s109.397-20.757,163.918-60.026c40.688-29.306,65.828-58.374,66.879-59.597   c4.827-5.621,4.827-13.924,0-19.545C485.746,244.993,460.606,215.925,419.918,186.618z M110.203,301.436   c-24.207-17.366-42.754-34.927-53.077-45.443c14.916-15.175,47.03-45.044,88.898-68.097   c-12.298,19.792-19.413,43.125-19.413,68.092c0,24.973,7.118,48.311,19.422,68.106   C134.558,317.799,122.598,310.329,110.203,301.436z M256,300.99c-24.814,0-45-20.188-45-45.002c0-24.814,20.186-45.002,45-45.002   s45,20.188,45,45.002C301,280.803,280.814,300.99,256,300.99z M401.797,301.436c-12.395,8.893-24.355,16.363-35.83,22.658   c12.303-19.795,19.422-43.133,19.422-68.106c0-24.974-7.119-48.312-19.422-68.107c11.475,6.295,23.435,13.766,35.83,22.658   c24.209,17.369,42.757,34.931,53.082,45.449C444.554,266.507,426.006,284.068,401.797,301.436z" data-original="#000000" class="active-path" data-old_color="#ad4274" fill="#ad4274"/>
	<path d="M256,240.986c-8.271,0-15,6.73-15,15.002c0,8.272,6.729,15.002,15,15.002c8.272,0,15-6.729,15-15.002   C271,247.716,264.272,240.986,256,240.986z" data-original="#000000" class="active-path" data-old_color="#ad4274" fill="#ad4274"/>
	<path d="M15,110.005c8.284,0,15-6.716,15-15V30h65c8.284,0,15-6.716,15-15S103.284,0,95,0H15C6.716,0,0,6.716,0,15v80.005   C0,103.289,6.716,110.005,15,110.005z" data-original="#000000" class="active-path" data-old_color="#ad4274" fill="#ad4274"/>
	<path d="M416.995,30h65v65.005c0,8.284,6.716,15,15,15c8.284,0,15-6.716,15-15V15c0-8.284-6.716-15-15-15h-80   c-8.284,0-15,6.716-15,15S408.711,30,416.995,30z" data-original="#000000" class="active-path" data-old_color="#ad4274" fill="#ad4274"/>
	<path d="M497,401.995c-8.284,0-15,6.716-15,15V482h-65c-8.284,0-15,6.716-15,15s6.716,15,15,15h80c8.284,0,15-6.716,15-15v-80.005   C512,408.711,505.284,401.995,497,401.995z" data-original="#000000" class="active-path" data-old_color="#ad4274" fill="#ad4274"/>
	<path d="M95.005,482h-65v-65.005c0-8.284-6.716-15-15-15s-15,6.716-15,15V497c0,8.284,6.716,15,15,15h80c8.284,0,15-6.716,15-15   S103.289,482,95.005,482z" data-original="#000000" class="active-path" data-old_color="#ad4274" fill="#ad4274"/>
	<path d="M256,76.141c8.284,0,15-6.716,15-15V15c0-8.284-6.716-15-15-15c-8.284,0-15,6.716-15,15v46.141   C241,69.425,247.716,76.141,256,76.141z" data-original="#000000" class="active-path" data-old_color="#ad4274" fill="#ad4274"/>
	<path d="M256,435.859c-8.284,0-15,6.716-15,15V497c0,8.284,6.716,15,15,15c8.284,0,15-6.716,15-15v-46.141   C271,442.575,264.284,435.859,256,435.859z" data-original="#000000" class="active-path" data-old_color="#ad4274" fill="#ad4274"/>
</g></g> </svg>
