<?xml version="1.0"?>
<svg xmlns="http://www.w3.org/2000/svg" height="512px" viewBox="-31 0 512 512.00022" width="512px" class=""><g><path d="m240.011719 121.136719v71.121093c-27.246094 9.699219-52.839844 26.078126-73.394531 48.738282h-166.617188v-120.996094c0-65.875 53.203125-120.125 120.425781-120 65.945313.230469 119.585938 54.570312 119.585938 121.136719zm0 0" data-original="#000000" class="active-path" data-old_color="#93278f" fill="#93278f"/><path d="m179.140625 495.382812c-79.367187 45.136719-179.140625-12.351562-179.140625-104.386718v-120h144.648438c-43.875 75.195312-27.492188 168.167968 34.492187 224.386718zm0 0" data-original="#000000" class="active-path" data-old_color="#93278f" fill="#93278f"/><path d="m449.277344 376.96875-298.519532.050781c7.367188 74.523438 70.230469 134.996094 149.289063 134.980469 79.066406-.011719 141.898437-60.515625 149.230469-135.03125zm0 0" data-original="#000000" class="active-path" data-old_color="#93278f" fill="#93278f"/><path d="m449.273438 346.96875c-7.363282-74.523438-70.234376-134.996094-149.289063-134.980469-79.070313.011719-141.898437 60.515625-149.234375 135.03125zm0 0" data-original="#000000" class="active-path" data-old_color="#93278f" fill="#93278f"/><path d="m449.273438 346.96875c-7.363282-74.523438-70.234376-134.996094-149.289063-134.980469-79.070313.011719-141.898437 60.515625-149.234375 135.03125zm0 0" data-original="#000000" class="active-path" data-old_color="#93278f" fill="#93278f"/></g> </svg>
