<?xml version="1.0"?>
<svg xmlns="http://www.w3.org/2000/svg" xmlns:xlink="http://www.w3.org/1999/xlink" version="1.1" id="Capa_1" x="0px" y="0px" viewBox="0 0 512 512" style="enable-background:new 0 0 512 512;" xml:space="preserve" width="512px" height="512px"><g><g>
	<g>
		<path d="M468.261,43.739c-58.319-58.319-153.211-58.319-211.53,0c-54.74,54.739-58.097,141.699-10.076,200.394l-20.697,20.697    c-16.956-8.166-37.958-5.239-52,8.803l-160.64,160.64c-17.757,17.757-17.757,46.651,0,64.409    C22.196,507.561,33.859,512,45.522,512c11.663,0,23.326-4.439,32.204-13.318l160.64-160.64c14.043-14.042,16.969-35.044,8.803-52    l20.697-20.697c27.43,22.443,61.023,33.664,94.629,33.664c38.297,0,76.609-14.583,105.764-43.739    C526.58,196.95,526.58,102.058,468.261,43.739z M429.143,217.149c-17.802,17.802-41.471,27.607-66.646,27.607    c-25.176,0-48.844-9.804-66.647-27.607c-5.856-5.857-5.856-15.354,0-21.211c5.857-5.857,15.353-5.857,21.211,0    c12.136,12.136,28.271,18.82,45.435,18.82c17.163,0,33.299-6.684,45.434-18.82c5.857-5.857,15.355-5.857,21.211,0    C435,201.796,435,211.293,429.143,217.149z" data-original="#000000" class="active-path" data-old_color="#000000" fill="#4AA092"/>
	</g>
</g></g> </svg>
