<?xml version="1.0" encoding="utf-8"?>
<!-- Generator: Adobe Illustrator 22.0.1, SVG Export Plug-In . SVG Version: 6.00 Build 0)  -->
<svg version="1.1" id="Layer_1" xmlns="http://www.w3.org/2000/svg" xmlns:xlink="http://www.w3.org/1999/xlink" x="0px" y="0px"
	 viewBox="0 0 38 37.7" style="enable-background:new 0 0 38 37.7;" xml:space="preserve">
<style type="text/css">
	.st0{fill:#808080;}
	.st1{fill:#FFFFFF;}
</style>
<g>
	<circle class="st0" cx="18.8" cy="18.9" r="17.9"/>
	<path class="st1" d="M18.5,17.3c2.3,0,4.1-1.8,4.1-4.1s-1.8-4.1-4.1-4.1s-4.1,1.8-4.1,4.1S16.2,17.3,18.5,17.3z"/>
	<path class="st1" d="M20.2,18.4h-3.5c-2.9,0-5.2,2.4-5.2,5.2v4.2l0,0.1l0.3,0.1c2.8,0.9,5.2,1.1,7.1,1.1c3.8,0,6.1-1.1,6.2-1.2
		l0.3-0.1h0v-4.2C25.5,20.8,23.1,18.4,20.2,18.4z"/>
</g>
</svg>
