<?xml version="1.0"?>
<svg xmlns="http://www.w3.org/2000/svg" height="512px" viewBox="-56 0 448 448" width="512px"><g><path d="m271.640625 152c-8.03125-.046875-15.992187 1.484375-23.429687 4.511719-2.125.875-4.519532.796875-6.582032-.21875-2.058594-1.011719-3.585937-2.863281-4.1875-5.078125-7.089844-26.015625-29.722656-44.796875-56.597656-46.96875-26.878906-2.167969-52.234375 12.738281-63.402344 37.28125-1.667968 3.691406-5.832031 5.554687-9.695312 4.335937-3.917969-1.234375-8-1.863281-12.105469-1.863281-19.53125-.082031-36.226563 14.039062-39.390625 33.3125-.640625 3.855469-3.976562 6.6875-7.886719 6.6875-26.511719-.199219-48.164062 21.128906-48.363281 47.640625-.199219 26.507813 21.132812 48.160156 47.640625 48.359375h224c35.347656 0 64-28.652344 64-64s-28.652344-64-64-64zm-104 107.3125-39.597656-39.601562 11.308593-11.3125 20.289063 20.289062v-76.6875h16v76.6875l20.289063-20.289062 11.3125 11.3125zm0 0" data-original="#000000" class="active-path" data-old_color="#000000" fill="#C22D39"/><path d="m39.640625 32h256v-8c0-13.253906-10.746094-24-24-24h-208c-13.253906 0-24 10.746094-24 24zm120-24h16v16h-16zm0 0" data-original="#000000" class="active-path" data-old_color="#000000" fill="#C22D39"/><path d="m39.640625 168.566406c.761719-.09375 1.511719-.246094 2.28125-.308594 8.054687-27.578124 35.691406-44.570312 63.933594-39.3125 15.113281-27.019531 44.457031-42.894531 75.339843-40.761718 30.882813 2.136718 57.761719 21.894531 69.015626 50.738281 6.972656-1.957031 14.1875-2.941406 21.429687-2.921875 8.140625-.003906 16.234375 1.238281 24 3.6875v-91.6875h-256zm0 0" data-original="#000000" class="active-path" data-old_color="#000000" fill="#C22D39"/><path d="m295.640625 400v-107.6875c-7.765625 2.449219-15.859375 3.691406-24 3.6875h-224c-2.675781-.015625-5.347656-.203125-8-.550781v104.550781h104v16h-104v8c0 13.253906 10.746094 24 24 24h208c13.253906 0 24-10.746094 24-24v-8h-104v-16zm-120 16h-16v-16h16zm0 0" data-original="#000000" class="active-path" data-old_color="#000000" fill="#C22D39"/><script xmlns="" class="active-path" style=""/></g> </svg>
