<?xml version="1.0"?>
<svg xmlns="http://www.w3.org/2000/svg" id="_x33_0" enable-background="new 0 0 64 64" height="512px" viewBox="0 0 64 64" width="512px"><g><g><path d="m27.943 54.295 1.255 2.092 1.232-1.232-1.616-1.077z" data-original="#000000" class="active-path" data-old_color="#000000" fill="#CE8A35"/><path d="m35.04 24c.694 0 1.297-.47 1.466-1.144l.142-.568-1.422-.237-1.656 1.104.402.402c.285.286.665.443 1.068.443z" data-original="#000000" class="active-path" data-old_color="#000000" fill="#CE8A35"/><path d="m36 42.946c-1.123-.12-2.227-.441-3.236-.946l-1.527-.764c-.309-.155-.655-.236-1-.236-1.234 0-2.237 1.003-2.237 2.236v2.764c0 2.206 1.794 4 4 4s4-1.794 4-4z" data-original="#000000" class="active-path" data-old_color="#000000" fill="#CE8A35"/><path d="m39.6 35.8c.124.165.221.348.33.523.024-.019.047-.04.071-.06v-11.263c0-.663.068-1.31.192-1.938-.377-.172-.767-.312-1.181-.381l-.385-.064-.181.723c-.391 1.567-1.792 2.66-3.406 2.66-.938 0-1.819-.365-2.482-1.028l-.558-.558-.558.558c-.663.663-1.545 1.028-2.482 1.028-1.614 0-3.015-1.093-3.405-2.659l-.181-.723-.385.064c-.748.125-1.448.435-2.055.885-.062.656-.171 1.306-.381 1.933-.447 1.342-1.226 2.568-2.251 3.544l-.508.484c-.36 1.362-1.185 2.535-2.298 3.337l.319 1.278 2.85.57c1.147.229 2.247.722 3.183 1.423.077.058.147.126.222.187.109-.175.206-.358.33-.523 1.314-1.753 3.408-2.8 5.6-2.8h4c2.191 0 4.285 1.047 5.6 2.8z" data-original="#000000" class="active-path" data-old_color="#000000" fill="#CE8A35"/><path d="m38.657 42.868c.228-.683.343-1.394.343-2.116v-.752c0-1.075-.355-2.141-1-3-.939-1.252-2.435-2-4-2h-4c-1.565 0-3.061.748-4 2-.645.859-1 1.925-1 3v.752c0 .721.115 1.433.343 2.114.163.489.387.956.657 1.393v-1.024c0-2.335 1.9-4.235 4.236-4.235.654 0 1.31.155 1.895.447l1.527.764c1.032.516 2.188.789 3.342.789h1v3.26c.27-.437.494-.904.657-1.392z" data-original="#000000" class="active-path" data-old_color="#000000" fill="#CE8A35"/><path d="m36.057 54.295-.871-.217-1.616 1.077 1.232 1.232z" data-original="#000000" class="active-path" data-old_color="#000000" fill="#CE8A35"/><path d="m45.494 36.856c.169.674.772 1.144 1.466 1.144.403 0 .783-.157 1.068-.442l.402-.402-1.641-1.094-1.423.285z" data-original="#000000" class="active-path" data-old_color="#000000" fill="#CE8A35"/><path d="m42 35.119c.434-.171.878-.315 1.334-.406l2.85-.57.319-1.278c-1.513-1.09-2.503-2.862-2.503-4.865v-2.868c0-1.048.558-2.034 1.456-2.572l4.544-2.726 4.544 2.726c.898.539 1.456 1.524 1.456 2.572v2.868c0 2.003-.99 3.775-2.503 4.866l.319 1.278 2.85.57c.456.091.9.235 1.334.406v-10.12c0-4.411-3.589-8-8-8s-8 3.589-8 8z" data-original="#000000" class="active-path" data-old_color="#000000" fill="#CE8A35"/><path d="m54 28v-2.868c0-.349-.186-.678-.485-.857l-3.515-2.109-3.515 2.109c-.3.18-.485.508-.485.857v2.868c0 2.206 1.794 4 4 4s4-1.794 4-4z" data-original="#000000" class="active-path" data-old_color="#000000" fill="#CE8A35"/><path d="m22.938 21.243c.546-.252 1.124-.434 1.723-.533l3.527-.588.314-1.256c-1.512-1.091-2.502-2.863-2.502-4.866v-2.868c0-1.048.558-2.034 1.456-2.572l4.544-2.726 4.544 2.726c.898.539 1.456 1.524 1.456 2.572v2.868c0 2.003-.99 3.775-2.503 4.866l.314 1.256 3.527.588c.5.083.981.225 1.444.414.463-1.097 1.123-2.087 1.925-2.944-.123-.303-.269-.595-.468-.859l-.839-1.121c-.903-1.203-1.4-2.695-1.4-4.2v-1c0-4.411-3.589-8-8-8s-8 3.589-8 8v1c0 1.505-.497 2.997-1.4 4.2l-.84 1.12c-.09.121-.17.248-.246.379.027.035.059.065.086.101.751 1 1.201 2.202 1.338 3.443z" data-original="#000000" class="active-path" data-old_color="#000000" fill="#CE8A35"/><path d="m53.04 38c.694 0 1.297-.47 1.466-1.144l.127-.51-1.423-.285-1.641 1.094.402.402c.286.286.666.443 1.069.443z" data-original="#000000" class="active-path" data-old_color="#000000" fill="#CE8A35"/><path d="m51.859 34.559-.199-.797c-.528.152-1.084.238-1.66.238s-1.132-.086-1.66-.239l-.199.797 1.859 1.24z" data-original="#000000" class="active-path" data-old_color="#000000" fill="#CE8A35"/><path d="m33.859 52.559-.199-.798c-.528.153-1.084.239-1.66.239s-1.132-.086-1.66-.239l-.199.798 1.859 1.239z" data-original="#000000" class="active-path" data-old_color="#000000" fill="#CE8A35"/><path d="m23 54.595c.031-.033.059-.068.091-.1.914-.915 2.061-1.564 3.316-1.877l1.768-.442.328-1.31c-1.113-.802-1.938-1.974-2.298-3.337l-.509-.485c-1.024-.975-1.803-2.201-2.25-3.544-.296-.886-.446-1.811-.446-2.748v-.752c0-.59.098-1.172.245-1.742-.188-.186-.385-.363-.597-.522-.697-.523-1.518-.89-2.374-1.062l-2.758-.552c-.781 1.169-2.083 1.878-3.516 1.878s-2.735-.709-3.515-1.877l-2.758.552c-.856.171-1.677.539-2.374 1.062-1.474 1.103-2.353 2.862-2.353 4.702v4.561h2v-2h2v16h14v-16h2z" data-original="#000000" class="active-path" data-old_color="#000000" fill="#CE8A35"/><path d="m8 26.26v-1.128c0-1.048.558-2.034 1.456-2.572l3.544-2.126v-3.434h-1c-1.565 0-3.061.748-4 2-.645.859-1 1.925-1 3v.752c0 .721.115 1.433.343 2.114.163.49.387.956.657 1.394z" data-original="#000000" class="active-path" data-old_color="#000000" fill="#CE8A35"/><path d="m38.028 54.896-2.83 4.717-3.198-3.199-3.198 3.199-2.83-4.717c-.541.252-1.041.588-1.467 1.013-.971.971-1.505 2.261-1.505 3.633v1.458h18v-1.458c0-1.373-.534-2.663-1.505-3.633-.425-.425-.926-.761-1.467-1.013z" data-original="#000000" class="active-path" data-old_color="#000000" fill="#CE8A35"/><path d="m3 49h2v12h-2z" data-original="#000000" class="active-path" data-old_color="#000000" fill="#CE8A35"/><path d="m57.736 49.764c-.481.963-.736 2.041-.736 3.118 0 1.211.317 2.408.919 3.46l2.661 4.658h.42v-12h-2.882z" data-original="#000000" class="active-path" data-old_color="#000000" fill="#CE8A35"/><path d="m58.648 37.736c-.611-.457-1.317-.787-2.057-.979l-.146.584c-.39 1.566-1.791 2.659-3.405 2.659-.938 0-1.819-.365-2.482-1.028l-.558-.558-.558.558c-.663.663-1.545 1.028-2.482 1.028-1.614 0-3.015-1.093-3.405-2.659l-.146-.584c-.74.192-1.446.522-2.056.979-.213.16-.41.337-.597.522.146.57.244 1.152.244 1.742v.752c0 .937-.15 1.862-.446 2.748-.447 1.342-1.226 2.568-2.251 3.544l-.508.484c-.36 1.362-1.185 2.534-2.298 3.337l.328 1.31 1.768.442c1.256.313 2.402.963 3.316 1.877.505.505.924 1.071 1.252 1.683.544-1.012.839-2.144.839-3.295 0-1.078-.255-2.156-.736-3.119l-.487-.975c-.508-1.014-.777-2.152-.777-3.288s.269-2.274.776-3.289l.329-.658 1.789.895-.329.658c-.37.739-.565 1.567-.565 2.394s.195 1.655.565 2.395l.487.975c.621 1.238.948 2.626.948 4.012 0 1.559-.409 3.099-1.183 4.452l-.853 1.493c.024.237.036.475.036.715v1.458h15.277l-2.094-3.666c-.774-1.353-1.183-2.893-1.183-4.452 0-1.386.327-2.774.947-4.013l.487-.975c.371-.739.566-1.567.566-2.394s-.195-1.655-.565-2.395l-.329-.658 1.789-.895.329.658c.507 1.016.776 2.154.776 3.29 0 .504-.061 1.006-.164 1.5h2.164v-4.561c0-1.84-.879-3.599-2.352-4.703z" data-original="#000000" class="active-path" data-old_color="#000000" fill="#CE8A35"/><path d="m20 25.132v1.128c.27-.438.494-.904.657-1.393.228-.682.343-1.393.343-2.115v-.752c0-1.075-.355-2.141-1-3-.939-1.252-2.435-2-4-2h-1v3.434l3.544 2.126c.898.539 1.456 1.524 1.456 2.572z" data-original="#000000" class="active-path" data-old_color="#000000" fill="#CE8A35"/><path d="m36 11.132c0-.349-.186-.678-.485-.857l-3.515-2.109-3.515 2.109c-.3.18-.485.508-.485.857v2.868c0 2.206 1.794 4 4 4s4-1.794 4-4z" data-original="#000000" class="active-path" data-old_color="#000000" fill="#CE8A35"/><path d="m27.494 22.856c.169.674.772 1.144 1.466 1.144.403 0 .783-.157 1.068-.442l.402-.402-1.656-1.104-1.422.237z" data-original="#000000" class="active-path" data-old_color="#000000" fill="#CE8A35"/><path d="m12.34 33.761-.274 1.098c.396.702 1.121 1.141 1.934 1.141s1.538-.439 1.935-1.141l-.274-1.098c-.529.153-1.085.239-1.661.239s-1.132-.086-1.66-.239z" data-original="#000000" class="active-path" data-old_color="#000000" fill="#CE8A35"/><path d="m32 20c-.576 0-1.132-.086-1.66-.239l-.199.798 1.859 1.239 1.859-1.24-.199-.798c-.528.154-1.084.24-1.66.24z" data-original="#000000" class="active-path" data-old_color="#000000" fill="#CE8A35"/><path d="m10 25.132v2.868c0 2.206 1.794 4 4 4s4-1.794 4-4v-2.868c0-.349-.186-.678-.485-.857l-3.515-2.109-3.515 2.109c-.299.18-.485.508-.485.857z" data-original="#000000" class="active-path" data-old_color="#000000" fill="#CE8A35"/></g><script xmlns="" class="active-path" style=""/></g> </svg>
