<?xml version="1.0"?>
<svg xmlns="http://www.w3.org/2000/svg" id="Layer_5" enable-background="new 0 0 64 64" height="512px" viewBox="0 0 64 64" width="512px" class=""><g><g><path d="m22.975 27h-9.949c.062 1.459.261 2.8.556 4h8.838c.294-1.2.492-2.541.555-4z" data-original="#000000" class="active-path" data-old_color="#000000" fill="#93278F"/><path d="m21.792 33h-7.584c.986 2.501 2.432 4 3.792 4s2.806-1.499 3.792-4z" data-original="#000000" class="active-path" data-old_color="#000000" fill="#93278F"/><path d="m11.026 27h-3.975c.13 1.43.537 2.779 1.164 4h3.307c-.272-1.242-.44-2.587-.496-4z" data-original="#000000" class="active-path" data-old_color="#000000" fill="#93278F"/><path d="m9.521 33c1.069 1.292 2.431 2.329 3.977 3.026-.557-.858-1.034-1.882-1.421-3.026z" data-original="#000000" class="active-path" data-old_color="#000000" fill="#93278F"/><path d="m33 49v2h.586l1-1-1-1z" data-original="#000000" class="active-path" data-old_color="#000000" fill="#93278F"/><path d="m30 57c-1.13 0-2.162-.391-3-1.026v2.026c0 1.654 1.346 3 3 3h28c1.654 0 3-1.346 3-3v-2.026c-.838.635-1.87 1.026-3 1.026z" data-original="#000000" class="active-path" data-old_color="#000000" fill="#93278F"/><path d="m15 42.719v15.281c0 1.654 1.346 3 3 3s3-1.346 3-3v-15.281c-.976.174-1.975.281-3 .281s-2.024-.107-3-.281z" data-original="#000000" class="active-path" data-old_color="#000000" fill="#93278F"/><path d="m43 49h2.001v2h-2.001z" data-original="#000000" class="active-path" data-old_color="#000000" fill="#93278F"/><path d="m24.479 31h3.307c.626-1.221 1.034-2.57 1.164-4h-3.976c-.056 1.413-.224 2.758-.495 4z" data-original="#000000" class="active-path" data-old_color="#000000" fill="#93278F"/><path d="m24.974 25h3.976c-.13-1.43-.537-2.779-1.164-4h-3.307c.271 1.242.439 2.587.495 4z" data-original="#000000" class="active-path" data-old_color="#000000" fill="#93278F"/><path d="m26.479 19c-1.069-1.292-2.431-2.329-3.977-3.026.557.858 1.034 1.882 1.421 3.026z" data-original="#000000" class="active-path" data-old_color="#000000" fill="#93278F"/><path d="m22.501 36.026c1.547-.697 2.909-1.734 3.977-3.026h-2.556c-.387 1.144-.864 2.168-1.421 3.026z" data-original="#000000" class="active-path" data-old_color="#000000" fill="#93278F"/><path d="m13.499 15.974c-1.547.697-2.909 1.734-3.978 3.026h2.556c.388-1.144.865-2.168 1.422-3.026z" data-original="#000000" class="active-path" data-old_color="#000000" fill="#93278F"/><path d="m11.521 21h-3.307c-.626 1.221-1.034 2.57-1.164 4h3.976c.056-1.413.224-2.758.495-4z" data-original="#000000" class="active-path" data-old_color="#000000" fill="#93278F"/><path d="m18 15c-1.36 0-2.806 1.499-3.792 4h7.584c-.986-2.501-2.432-4-3.792-4z" data-original="#000000" class="active-path" data-old_color="#000000" fill="#93278F"/><path d="m22.975 25c-.062-1.459-.261-2.8-.556-4h-8.838c-.295 1.2-.493 2.541-.556 4z" data-original="#000000" class="active-path" data-old_color="#000000" fill="#93278F"/><path d="m33 26c0-8.271-6.729-15-15-15s-15 6.729-15 15 6.729 15 15 15 15-6.729 15-15zm-28 0c0-7.168 5.832-13 13-13s13 5.832 13 13-5.832 13-13 13-13-5.832-13-13z" data-original="#000000" class="active-path" data-old_color="#000000" fill="#93278F"/><path d="m51 26.414v.586h2v-.586l-1-1z" data-original="#000000" class="active-path" data-old_color="#000000" fill="#93278F"/><path d="m57 30v-8c0-.552-.448-1-1-1h-9v10h9c.552 0 1-.448 1-1zm-2-1h-6v-3.414l3-3 3 3z" data-original="#000000" class="active-path" data-old_color="#000000" fill="#93278F"/><path d="m45 31v-10h-10.753c.488 1.582.753 3.26.753 5s-.265 3.418-.753 5z" data-original="#000000" class="active-path" data-old_color="#000000" fill="#93278F"/><path d="m27 11.604c2.822 1.771 5.086 4.339 6.474 7.396h22.526c1.654 0 3 1.346 3 3v8c0 1.654-1.346 3-3 3h-22.526c-1.388 3.057-3.652 5.625-6.474 7.396v11.604c0 1.654 1.346 3 3 3h28c1.654 0 3-1.346 3-3v-41h-34zm6 23.396h2v2h-2zm2 17.414c-.372.372-.888.586-1.414.586h-.586c-1.103 0-2-.897-2-2v-2c0-1.103.897-2 2-2h.586c.526 0 1.042.214 1.414.586l2.414 2.414zm12-1.414c0 1.103-.897 2-2 2h-2c-1.103 0-2-.897-2-2v-2c0-1.103.897-2 2-2h2c1.103 0 2 .897 2 2zm10 0c0 1.103-.897 2-2 2h-.586c-.526 0-1.042-.214-1.414-.586l-2.414-2.414 2.414-2.414c.372-.372.888-.586 1.414-.586h.586c1.103 0 2 .897 2 2zm2-6h-26v-2h26zm0-4h-26v-2h26zm0-4h-22v-2h22zm-2-24h2v2h-2zm-4 0h2v2h-2zm-4 0h2v2h-2z" data-original="#000000" class="active-path" data-old_color="#000000" fill="#93278F"/><path d="m58 3h-28c-1.654 0-3 1.346-3 3v3h34v-3c0-1.654-1.346-3-3-3zm-17 4h-2v-2h2zm8 0h-6v-2h6z" data-original="#000000" class="active-path" data-old_color="#000000" fill="#93278F"/><path d="m54.414 49-1 1 1 1h.588l-.002-2z" data-original="#000000" class="active-path" data-old_color="#000000" fill="#93278F"/></g></g> </svg>
