<svg id="Layer_1" enable-background="new 0 0 512 512" height="512" viewBox="0 0 512 512" width="512" xmlns="http://www.w3.org/2000/svg"><g><path d="m313.019 149.891h-114.038c-8.905 0-16.124-7.219-16.124-16.124v-48.106c0-8.905 7.219-16.124 16.124-16.124h114.038c8.905 0 16.124 7.219 16.124 16.124v48.107c0 8.905-7.219 16.123-16.124 16.123z" fill="#eb866c"/><path d="m313.019 149.891h-114.038c-8.905 0-16.124-7.219-16.124-16.124v-48.106c0-8.905 7.219-16.124 16.124-16.124h114.038c8.905 0 16.124 7.219 16.124 16.124v48.107c0 8.905-7.219 16.123-16.124 16.123z" fill="#fdd9b1"/><path d="m313.76 69.537h-30.905c8.496 0 15.383 7.566 15.383 16.9v46.554c0 9.334-6.887 16.9-15.383 16.9h30.905c8.496 0 15.383-7.566 15.383-16.9v-46.554c0-9.333-6.887-16.9-15.383-16.9z" fill="#f2ca9c"/><path d="m313.019 296.177h-114.038c-8.905 0-16.124-7.219-16.124-16.124v-48.107c0-8.905 7.219-16.124 16.124-16.124h114.038c8.905 0 16.124 7.219 16.124 16.124v48.107c0 8.905-7.219 16.124-16.124 16.124z" fill="#eb866c"/><path d="m313.019 296.177h-114.038c-8.905 0-16.124-7.219-16.124-16.124v-48.107c0-8.905 7.219-16.124 16.124-16.124h114.038c8.905 0 16.124 7.219 16.124 16.124v48.107c0 8.905-7.219 16.124-16.124 16.124z" fill="#fdd9b1"/><path d="m313.76 215.823h-30.905c8.496 0 15.383 7.566 15.383 16.9v46.554c0 9.334-6.887 16.9-15.383 16.9h30.905c8.496 0 15.383-7.566 15.383-16.9v-46.554c0-9.334-6.887-16.9-15.383-16.9z" fill="#f2ca9c"/><path d="m313.019 442.463h-114.038c-8.905 0-16.124-7.219-16.124-16.124v-48.107c0-8.905 7.219-16.124 16.124-16.124h114.038c8.905 0 16.124 7.219 16.124 16.124v48.107c0 8.905-7.219 16.124-16.124 16.124z" fill="#eb866c"/><path d="m313.019 442.463h-114.038c-8.905 0-16.124-7.219-16.124-16.124v-48.107c0-8.905 7.219-16.124 16.124-16.124h114.038c8.905 0 16.124 7.219 16.124 16.124v48.107c0 8.905-7.219 16.124-16.124 16.124z" fill="#fdd9b1"/><path d="m313.76 362.109h-30.905c8.496 0 15.383 7.566 15.383 16.9v46.554c0 9.334-6.887 16.9-15.383 16.9h30.905c8.496 0 15.383-7.566 15.383-16.9v-46.554c0-9.334-6.887-16.9-15.383-16.9z" fill="#f2ca9c"/><path d="m313.76 73.143h-115.52c-8.496 0-15.383-6.887-15.383-15.383v-42.377c0-8.496 6.887-15.383 15.383-15.383h115.52c8.496 0 15.383 6.887 15.383 15.383v42.377c0 8.496-6.887 15.383-15.383 15.383z" fill="#eb866c"/><path d="m313.76 73.143h-115.52c-8.496 0-15.383-6.887-15.383-15.383v-42.377c0-8.496 6.887-15.383 15.383-15.383h115.52c8.496 0 15.383 6.887 15.383 15.383v42.377c0 8.496-6.887 15.383-15.383 15.383z" fill="#ffe4c4"/><path d="m313.76 0h-30.905c8.496 0 15.383 6.887 15.383 15.383v42.377c0 8.496-6.887 15.383-15.383 15.383h30.905c8.496 0 15.383-6.887 15.383-15.383v-42.377c0-8.496-6.887-15.383-15.383-15.383z" fill="#fdd9b1"/><path d="m313.76 219.429h-115.52c-8.496 0-15.383-6.887-15.383-15.383v-42.377c0-8.496 6.887-15.383 15.383-15.383h115.52c8.496 0 15.383 6.887 15.383 15.383v42.377c0 8.495-6.887 15.383-15.383 15.383z" fill="#eb866c"/><path d="m313.76 219.429h-115.52c-8.496 0-15.383-6.887-15.383-15.383v-42.377c0-8.496 6.887-15.383 15.383-15.383h115.52c8.496 0 15.383 6.887 15.383 15.383v42.377c0 8.495-6.887 15.383-15.383 15.383z" fill="#ffe4c4"/><path d="m313.76 146.286h-30.905c8.496 0 15.383 6.887 15.383 15.383v42.376c0 8.496-6.887 15.383-15.383 15.383h30.905c8.496 0 15.383-6.887 15.383-15.383v-42.376c0-8.496-6.887-15.383-15.383-15.383z" fill="#fdd9b1"/><path d="m313.76 365.714h-115.52c-8.496 0-15.383-6.887-15.383-15.383v-42.377c0-8.496 6.887-15.383 15.383-15.383h115.52c8.496 0 15.383 6.887 15.383 15.383v42.377c0 8.496-6.887 15.383-15.383 15.383z" fill="#eb866c"/><path d="m313.76 365.714h-115.52c-8.496 0-15.383-6.887-15.383-15.383v-42.377c0-8.496 6.887-15.383 15.383-15.383h115.52c8.496 0 15.383 6.887 15.383 15.383v42.377c0 8.496-6.887 15.383-15.383 15.383z" fill="#ffe4c4"/><path d="m313.76 292.571h-30.905c8.496 0 15.383 6.887 15.383 15.383v42.376c0 8.496-6.887 15.383-15.383 15.383h30.905c8.496 0 15.383-6.887 15.383-15.383v-42.376c0-8.495-6.887-15.383-15.383-15.383z" fill="#fdd9b1"/><path d="m313.76 512h-115.52c-8.496 0-15.383-6.887-15.383-15.383v-42.377c0-8.496 6.887-15.383 15.383-15.383h115.52c8.496 0 15.383 6.887 15.383 15.383v42.377c0 8.496-6.887 15.383-15.383 15.383z" fill="#eb866c"/><path d="m313.76 512h-115.52c-8.496 0-15.383-6.887-15.383-15.383v-42.377c0-8.496 6.887-15.383 15.383-15.383h115.52c8.496 0 15.383 6.887 15.383 15.383v42.377c0 8.496-6.887 15.383-15.383 15.383z" fill="#ffe4c4"/><path d="m313.76 438.857h-30.905c8.496 0 15.383 6.887 15.383 15.383v42.376c0 8.496-6.887 15.383-15.383 15.383h30.905c8.496 0 15.383-6.887 15.383-15.383v-42.376c0-8.496-6.887-15.383-15.383-15.383z" fill="#fdd9b1"/><path d="m468.764 131.395c-13.653 30.269-47.091 113.42-67.729 167.727s-90.843 49.707-114.07 21.047c-17.289-21.344-44.636-21.344-61.935 0-23.217 28.66-93.422 33.261-114.07-21.047-20.638-54.307-54.066-137.459-67.729-167.727-13.653-30.269-2.013-76.717 51.95-76.717 53.953 0 78.053 37.995 86.025 50.127 7.961 12.142 141.632 12.142 149.594 0 7.961-12.132 32.062-50.127 86.025-50.127 53.953 0 65.602 46.448 51.939 76.717z" fill="#fa6f5f"/><g><path d="m416.825 54.678c-5.793 0-11.221.46-16.342 1.257 41.462 7.6 49.772 48.125 37.433 75.46-13.653 30.269-47.091 113.421-67.729 167.728-9.071 23.868-27.716 36.354-47.74 40.423 29.181 5.76 64.856-4.288 78.589-40.423 20.638-54.307 54.076-137.459 67.729-167.728 13.662-30.269 2.013-76.717-51.94-76.717z" fill="#eb5e4e"/></g><g fill="#eb5e4e"><path d="m179.543 176.252c-1.618-3.812-6.02-5.591-9.834-3.973-10.669 4.526-23.037-.466-27.566-11.138-1.619-3.813-6.021-5.591-9.834-3.973s-5.592 6.021-3.973 9.834c7.736 18.224 28.898 26.869 47.235 19.083 3.811-1.617 5.591-6.021 3.972-9.833z"/><path d="m210.647 240.118c-8.942 7.42-22.182 6.188-29.603-2.756-2.645-3.188-7.374-3.627-10.561-.983-3.188 2.646-3.628 7.373-.983 10.562 12.7 15.309 35.401 17.435 50.725 4.723 3.188-2.646 3.628-7.374.983-10.562-2.644-3.187-7.372-3.626-10.561-.984z"/><path d="m379.692 157.169c-3.81-1.617-8.216.16-9.834 3.973-4.53 10.671-16.898 15.666-27.567 11.138-3.814-1.619-8.216.16-9.834 3.973-1.619 3.813.16 8.216 3.973 9.834 18.353 7.791 39.503-.868 47.235-19.083 1.619-3.814-.16-8.217-3.973-9.835z"/><path d="m341.518 236.379c-3.188-2.644-7.917-2.204-10.562.983-7.415 8.94-20.659 10.178-29.604 2.756-3.188-2.644-7.916-2.204-10.562.983-2.645 3.188-2.204 7.916.983 10.562 15.387 12.763 38.123 10.468 50.727-4.723 2.645-3.188 2.205-7.916-.982-10.561z"/><path d="m270.934 176.61c-8.305 8.089-21.64 7.914-29.729-.387-2.891-2.967-7.639-3.026-10.606-.139-2.967 2.891-3.028 7.639-.138 10.605 13.892 14.258 36.746 14.495 50.94.664 2.967-2.891 3.029-7.639.139-10.605-2.891-2.965-7.64-3.025-10.606-.138z"/></g></g></svg>