<svg id="Layer_3" enable-background="new 0 0 64 64" height="512" viewBox="0 0 64 64" width="512" xmlns="http://www.w3.org/2000/svg"><g><path d="m35 49v-29c0-3.314-2.686-6-6-6-1.657 0-3-1.343-3-3v-1h-12v1c0 1.657-1.343 3-3 3-3.314 0-6 2.686-6 6v29c0 2.761 2.239 5 5 5h20c2.761 0 5-2.239 5-5z" fill="#a8b0bc"/><path d="m21.958 27.479c0-6.848-2.815-13.036-7.348-17.479h-.61v1c0 1.657-1.343 3-3 3-3.314 0-6 2.686-6 6v29c0 .589.12 1.146.308 1.671 9.678-3.266 16.65-12.412 16.65-23.192z" fill="#c1c8d1"/><path d="m5 48h24.033c-.022-.331-.033-.664-.033-1 0-1.027.103-2.031.3-3h-24.3z" fill="#c16b3f"/><path d="m15.539 44h-10.539v4h5.818c1.738-1.132 3.326-2.476 4.721-4z" fill="#e39854"/><path d="m5 20h30v4h-30z" fill="#c16b3f"/><path d="m20.79 20h-15.79v4h16.707c-.195-1.373-.504-2.71-.917-4z" fill="#e39854"/><path d="m5 24v20h24.3c.743-3.661 2.819-6.837 5.699-9.001l.001.001v-11z" fill="#f2c351"/><path d="m5 44h10.539c3.985-4.354 6.418-10.153 6.418-16.521 0-1.182-.089-2.342-.25-3.479-8.245 0-16.707 0-16.707 0z" fill="#f7d881"/><path d="m27 10h-14c-1.105 0-2-.895-2-2v-4c0-1.105.895-2 2-2h14c1.105 0 2 .895 2 2v4c0 1.105-.895 2-2 2z" fill="#758190"/><g><path d="m15 4h1.999v6h-1.999z" fill="#8892a0"/></g><g><path d="m23 4h1.999v6h-1.999z" fill="#8892a0"/></g><g><path d="m19 4h1.999v6h-1.999z" fill="#8892a0"/></g><path d="m26 36c0 2.761-2.239 5-5 5h-2c-2.761 0-5-2.239-5-5v-4c0-2.761 2.239-5 5-5h2c2.761 0 5 2.239 5 5h-3c0-1.105-.895-2-2-2h-2c-1.105 0-2 .895-2 2v4c0 1.105.895 2 2 2h2c1.105 0 2-.895 2-2z" fill="#c16b3f"/><circle cx="44" cy="47" fill="#e39854" r="15"/><g><path d="m55.998 46.999h-2c0-5.514-4.485-10-9.999-10v-2c6.616.001 11.999 5.383 11.999 12z" fill="#c16b3f"/></g><path d="m46 32h-2c0-4.418 3.582-8 8-8h2c0 4.418-3.582 8-8 8z" fill="#78b75b"/><path d="m44 32c-3.314 0-6-2.686-6-6v-4c3.314 0 6 2.686 6 6z" fill="#96cc7f"/><g><path d="m36.999 53h1.999v2h-1.999z" fill="#c16b3f"/></g><g><path d="m40 52h1.999v2h-1.999z" fill="#c16b3f"/></g><g><path d="m39 49h1.999v2h-1.999z" fill="#c16b3f"/></g><g><path d="m34 51h1.999v2h-1.999z" fill="#c16b3f"/></g><g><path d="m36 48h1.999v2h-1.999z" fill="#c16b3f"/></g><path d="m19 38c-1.105 0-2-.895-2-2v-4c0-1.105.895-2 2-2h2c.288 0 .56.063.807.173.097-.885.151-1.783.151-2.694 0-.129-.008-.255-.01-.383-.307-.06-.623-.096-.948-.096h-2c-2.761 0-5 2.239-5 5v4c0 2.403 1.696 4.406 3.956 4.887.605-.922 1.152-1.884 1.63-2.887z" fill="#e39854"/><g><path d="m19 31h1.999c.552 0 1 .448 1 .999 0 .553.448 1 1 1h3c.553 0 1-.447 1-1 0-3.308-2.691-5.999-6-5.999h-2.001c-3.308 0-5.998 2.691-5.998 5.999v4c0 3.309 2.691 6 6 6h1.999c3.309 0 6-2.691 6-6 0-.265-.104-.52-.292-.707-.188-.188-.442-.293-.708-.293h-3c-.552 0-1 .448-1 1s-.448 1-1 1h-1.999c-.552 0-1-.449-1-1v-3.999c0-.552.448-1 1-1zm0 8h1.999c1.305 0 2.416-.836 2.829-2h1.045c-.445 1.724-2.013 3-3.874 3h-1.999c-2.206 0-4-1.794-4-4v-4c0-2.206 1.794-4 3.998-4h2.001c1.861 0 3.429 1.276 3.874 2.999h-1.045c-.413-1.164-1.525-1.999-2.829-1.999h-1.999c-1.654 0-3 1.346-3 3v3.999c0 1.655 1.346 3.001 3 3.001z"/><path d="m49.849 32.122c3.039-1.446 5.149-4.539 5.149-8.123 0-.553-.447-1-1-1h-2c-2.916 0-5.505 1.401-7.151 3.558-.666-3.169-3.483-5.557-6.848-5.557 0 0 0 0-.001 0-.265 0-.52.105-.707.292s-.292.442-.292.708v4c0 1.87.728 3.627 2.05 4.949.231.231.48.438.737.632-1.34.367-2.609.9-3.786 1.583v-13.165c-.002-3.859-3.143-6.999-7.002-6.999-1.102 0-1.998-.897-1.998-2v-.001c1.654 0 2.999-1.346 2.999-3v-3.999c0-1.654-1.346-3-3-3h-13.999c-1.654 0-3 1.346-3 3v4c0 1.654 1.346 3 3 3 0 1.103-.898 2-2.001 2-1.87 0-3.628.728-4.95 2.05s-2.05 3.08-2.049 4.95v28.999c0 3.309 2.691 6 6 6h20c.053 0 .105-.01.158-.011 2.77 4.78 7.93 8.011 13.842 8.011 8.822 0 15.999-7.177 15.999-16 0-6.757-4.216-12.535-10.15-14.877zm2.149-7.122h.93c-.487 3.388-3.408 6-6.928 6h-.931c.488-3.389 3.41-6 6.929-6zm-12.999 1v-2.9c2.279.465 3.999 2.485 3.999 4.899v2.901c-.954-.192-1.831-.661-2.535-1.365-.944-.944-1.464-2.2-1.464-3.535zm-10.473 17h-22.526v-18h28v9.53c-2.65 2.128-4.597 5.083-5.474 8.47zm-.526 4h-22v-2h22.139c-.083.656-.139 1.321-.139 2zm6-24h-28v-2l28-.001zm-22-15.001v-3.999c0-.552.448-1 1-1h13.999c.552 0 1 .448 1 1v4c0 .552-.448 1-1 1h-2v-5h-1.999v5h-2.001v-5h-1.999v5h-2.001v-5h-1.999v5h-2c-.552-.001-1-.449-1-1.001zm-1 7.001c2.205 0 4-1.794 4-4h10c0 2.206 1.794 4 4 4 2.414 0 4.433 1.72 4.899 4h-27.799c.192-.954.658-1.832 1.362-2.536.945-.944 2.201-1.464 3.538-1.464zm-1 37.999c-2.206 0-4-1.794-4-4h22.139c.175 1.397.526 2.738 1.039 4zm34 8c-7.72 0-14-6.28-14-14s6.28-14 14-14c7.719 0 13.999 6.28 13.999 14s-6.28 14-13.999 14z"/><path d="m43.999 35v2c5.514 0 9.999 4.486 9.999 10h2c0-6.618-5.383-12-11.999-12z"/><path d="m36.999 53h1.999v2h-1.999z"/><path d="m40 52h1.999v2h-1.999z"/><path d="m39 49h1.999v2h-1.999z"/><path d="m34 51h1.999v2h-1.999z"/><path d="m36 48h1.999v2h-1.999z"/></g></g></svg>